<svg xmlns="http://www.w3.org/2000/svg" width="1495" height="1318" viewBox="0 0 1495 1318"><rect x="0" y="0" width="1495" height="1318" rx="0" fill="#FFFFFF"/><text x="56" y="78" fill="#1F2937" font-size="40" font-weight="800" font-family="Inter, Arial, sans-serif" text-anchor="start">ARIS-Movie-Director</text><text x="58" y="110" fill="#6B7280" font-size="17" font-weight="500" font-family="Inter, Arial, sans-serif" text-anchor="start">A baked panel that looks right can still be wrong; only a blind cross-model literal-diff passes it.</text><rect x="385" y="190" width="310" height="454" rx="18" fill="#E5EEFB" stroke="#9DBDEB" stroke-width="2"/><text x="405" y="222" fill="#2563EB" font-size="18" font-weight="800" font-family="Inter, Arial, sans-serif" text-anchor="start">1 · Authored Source of Truth</text><rect x="745" y="190" width="310" height="848" rx="18" fill="#FDEBD8" stroke="#F4C18A" stroke-width="2"/><text x="765" y="222" fill="#EA580C" font-size="18" font-weight="800" font-family="Inter, Arial, sans-serif" text-anchor="start">2 · The Audited Spiral  (per panel)</text><rect x="1105" y="190" width="270" height="308" rx="18" fill="#DEF5E6" stroke="#9BD9B0" stroke-width="2"/><text x="1125" y="222" fill="#0E9F6E" font-size="18" font-weight="800" font-family="Inter, Arial, sans-serif" text-anchor="start">3 · Assembly + Release</text><line x1="212" y1="223" x2="212" y2="335" stroke="#4B5563" stroke-width="2.6"/><path d="M212,335 L207,325 L217,325 Z" fill="#4B5563"/><line x1="212" y1="335" x2="540" y2="275" stroke="#4B5563" stroke-width="2.6"/><path d="M540,275 L531,281 L529,272 Z" fill="#4B5563"/><line x1="540" y1="275" x2="540" y2="534" stroke="#4B5563" stroke-width="2.6"/><path d="M540,534 L535,524 L545,524 Z" fill="#4B5563"/><line x1="540" y1="399" x2="540" y2="534" stroke="#4B5563" stroke-width="2.6"/><path d="M540,534 L535,524 L545,524 Z" fill="#4B5563"/><line x1="540" y1="534" x2="900" y2="275" stroke="#4B5563" stroke-width="2.6"/><path d="M900,275 L895,285 L889,277 Z" fill="#4B5563"/><rect x="692" y="394" width="56" height="19" rx="4" fill="#FFFFFF"/><text x="720.0" y="407.5" fill="#4B5563" font-size="11.5" font-weight="700" font-family="Inter, Arial, sans-serif" text-anchor="middle">source</text><line x1="900" y1="275" x2="900" y2="410" stroke="#4B5563" stroke-width="2.6"/><path d="M900,410 L895,400 L905,400 Z" fill="#4B5563"/><rect x="872" y="332" width="56" height="19" rx="4" fill="#FFFFFF"/><text x="900.0" y="345.5" fill="#4B5563" font-size="11.5" font-weight="700" font-family="Inter, Arial, sans-serif" text-anchor="middle">render</text><line x1="900" y1="410" x2="900" y2="556" stroke="#4B5563" stroke-width="2.6"/><path d="M900,556 L895,546 L905,546 Z" fill="#4B5563"/><line x1="900" y1="556" x2="900" y2="691" stroke="#4B5563" stroke-width="2.6"/><path d="M900,691 L895,681 L905,681 Z" fill="#4B5563"/><line x1="900" y1="691" x2="900" y2="815" stroke="#0E9F6E" stroke-width="2.6"/><path d="M900,815 L895,805 L905,805 Z" fill="#0E9F6E"/><rect x="879" y="742" width="42" height="19" rx="4" fill="#FFFFFF"/><text x="900.0" y="756.0" fill="#0E9F6E" font-size="11.5" font-weight="700" font-family="Inter, Arial, sans-serif" text-anchor="middle">keep</text><path d="M900,691 Q900,430 900,410" fill="none" stroke="#EA580C" stroke-width="2.6" stroke-dasharray="8 5"/><path d="M900,410 L905,420 L895,420 Z" fill="#EA580C"/><rect x="848" y="420" width="105" height="19" rx="4" fill="#FFFFFF"/><text x="900.0" y="433.5" fill="#EA580C" font-size="11.5" font-weight="700" font-family="Inter, Arial, sans-serif" text-anchor="middle">RETRY (max 4)</text><line x1="900" y1="556" x2="900" y2="939" stroke="#6B7280" stroke-width="2.6" stroke-dasharray="8 5"/><path d="M900,939 L895,929 L905,929 Z" fill="#6B7280"/><rect x="876" y="736" width="49" height="19" rx="4" fill="#FFFFFF"/><text x="900.0" y="750.5" fill="#6B7280" font-size="11.5" font-weight="700" font-family="Inter, Arial, sans-serif" text-anchor="middle">write</text><line x1="900" y1="815" x2="1240" y2="275" stroke="#4B5563" stroke-width="2.6"/><path d="M1240,275 L1239,286 L1231,281 Z" fill="#4B5563"/><path d="M1240,275 Q1070,492 900,410" fill="none" stroke="#2563EB" stroke-width="2.6" stroke-dasharray="8 5"/><path d="M900,410 L911,410 L907,419 Z" fill="#2563EB"/><rect x="1021" y="482" width="98" height="19" rx="4" fill="#FFFFFF"/><text x="1070.0" y="495.5" fill="#2563EB" font-size="11.5" font-weight="700" font-family="Inter, Arial, sans-serif" text-anchor="middle">repair drift</text><line x1="1240" y1="275" x2="1240" y2="399" stroke="#4B5563" stroke-width="2.6"/><path d="M1240,399 L1235,389 L1245,389 Z" fill="#4B5563"/><rect x="1212" y="326" width="56" height="19" rx="4" fill="#FFFFFF"/><text x="1240.0" y="340.0" fill="#4B5563" font-size="11.5" font-weight="700" font-family="Inter, Arial, sans-serif" text-anchor="middle">accept</text><rect x="120" y="190" width="185" height="66" rx="12" fill="#FFFFFF" stroke="#CBD2DC" stroke-width="2" stroke-dasharray="6 5"/><text x="212" y="216.0" fill="#1F2937" font-size="14" font-weight="800" font-family="Inter, Arial, sans-serif" text-anchor="middle">researcher</text><text x="212" y="234.0" fill="#6B7280" font-size="11" font-weight="600" font-family="Inter, Arial, sans-serif" text-anchor="middle">hands over the night</text><text x="212" y="244.0" fill="#6B7280" font-size="10" font-weight="600" font-family="Inter, Arial, sans-serif" text-anchor="middle">〔ARIS chibi here〕</text><rect x="120" y="302" width="185" height="66" rx="12" fill="#FFFFFF" stroke="#CBD2DC" stroke-width="2"/><text x="212" y="328" fill="#1F2937" font-size="18" font-weight="800" font-family="Inter, Arial, sans-serif" text-anchor="middle">story brief</text><text x="212" y="350" fill="#6B7280" font-size="13" font-weight="600" font-family="Inter, Arial, sans-serif" text-anchor="middle">24h deadline</text><rect x="435" y="236" width="210" height="78" rx="12" fill="#FFFFFF" stroke="#2563EB" stroke-width="2"/><text x="540" y="268" fill="#1F2937" font-size="18" font-weight="800" font-family="Inter, Arial, sans-serif" text-anchor="middle">outline</text><text x="540" y="290" fill="#6B7280" font-size="13" font-weight="600" font-family="Inter, Arial, sans-serif" text-anchor="middle">story beats</text><rect x="435" y="360" width="210" height="78" rx="12" fill="#FFFFFF" stroke="#2563EB" stroke-width="2"/><text x="540" y="392" fill="#1F2937" font-size="18" font-weight="800" font-family="Inter, Arial, sans-serif" text-anchor="middle">storyboard</text><text x="540" y="414" fill="#6B7280" font-size="13" font-weight="600" font-family="Inter, Arial, sans-serif" text-anchor="middle">scene + dialogue + literals</text><rect x="415" y="484" width="250" height="100" rx="12" fill="#FFFFFF" stroke="#2563EB" stroke-width="2"/><text x="540" y="527" fill="#1F2937" font-size="18" font-weight="800" font-family="Inter, Arial, sans-serif" text-anchor="middle">comic.json</text><text x="540" y="549" fill="#6B7280" font-size="13" font-weight="600" font-family="Inter, Arial, sans-serif" text-anchor="middle">single source of truth</text><rect x="795" y="236" width="210" height="78" rx="12" fill="#FFFFFF" stroke="#EA580C" stroke-width="2"/><text x="900" y="268" fill="#1F2937" font-size="18" font-weight="800" font-family="Inter, Arial, sans-serif" text-anchor="middle">content-SVG</text><text x="900" y="290" fill="#6B7280" font-size="13" font-weight="600" font-family="Inter, Arial, sans-serif" text-anchor="middle">exact SVG blueprint</text><rect x="775" y="360" width="250" height="100" rx="12" fill="#FFFFFF" stroke="#EA580C" stroke-width="2"/><text x="900" y="403" fill="#1F2937" font-size="18" font-weight="800" font-family="Inter, Arial, sans-serif" text-anchor="middle">image_gen BAKE</text><text x="900" y="425" fill="#6B7280" font-size="13" font-weight="600" font-family="Inter, Arial, sans-serif" text-anchor="middle">blueprint + identity</text><rect x="775" y="506" width="250" height="100" rx="12" fill="#FFFFFF" stroke="#EA580C" stroke-width="2" stroke-dasharray="6 5"/><text x="900" y="532.0" fill="#1F2937" font-size="14" font-weight="800" font-family="Inter, Arial, sans-serif" text-anchor="middle">panel_gate</text><text x="900" y="550.0" fill="#6B7280" font-size="11" font-weight="600" font-family="Inter, Arial, sans-serif" text-anchor="middle">CC | Gemini | Codex</text><text x="900" y="594.0" fill="#6B7280" font-size="10" font-weight="600" font-family="Inter, Arial, sans-serif" text-anchor="middle">〔ARIS chibi here〕</text><path d="M900,652.0 L1005.0,691 L900,730.0 L795.0,691 Z" fill="#FFFFFF" stroke="#EA580C" stroke-width="2.4"/><text x="900" y="684" fill="#1F2937" font-size="18" font-weight="800" font-family="Inter, Arial, sans-serif" text-anchor="middle">verdict</text><text x="900" y="706" fill="#6B7280" font-size="13" font-weight="600" font-family="Inter, Arial, sans-serif" text-anchor="middle">literal diff</text><rect x="795" y="776" width="210" height="78" rx="12" fill="#FFFFFF" stroke="#EA580C" stroke-width="2"/><text x="900" y="808" fill="#1F2937" font-size="18" font-weight="800" font-family="Inter, Arial, sans-serif" text-anchor="middle">KEEP</text><text x="900" y="830" fill="#6B7280" font-size="13" font-weight="600" font-family="Inter, Arial, sans-serif" text-anchor="middle">panel accepted</text><rect x="795" y="900" width="210" height="78" rx="12" fill="#F8FAFD" stroke="#EA580C" stroke-width="2"/><text x="900" y="932" fill="#1F2937" font-size="18" font-weight="800" font-family="Inter, Arial, sans-serif" text-anchor="middle">research-wiki</text><text x="900" y="954" fill="#6B7280" font-size="13" font-weight="600" font-family="Inter, Arial, sans-serif" text-anchor="middle">failures logged</text><rect x="1135" y="236" width="210" height="78" rx="12" fill="#FFFFFF" stroke="#0E9F6E" stroke-width="2"/><text x="1240" y="268" fill="#1F2937" font-size="18" font-weight="800" font-family="Inter, Arial, sans-serif" text-anchor="middle">page assembly_gate</text><text x="1240" y="290" fill="#6B7280" font-size="13" font-weight="600" font-family="Inter, Arial, sans-serif" text-anchor="middle">coherence + drift check</text><rect x="1135" y="360" width="210" height="78" rx="12" fill="#FFFFFF" stroke="#0E9F6E" stroke-width="2"/><text x="1240" y="392" fill="#1F2937" font-size="18" font-weight="800" font-family="Inter, Arial, sans-serif" text-anchor="middle">release</text><text x="1240" y="414" fill="#6B7280" font-size="13" font-weight="600" font-family="Inter, Arial, sans-serif" text-anchor="middle">PNG panels + HTML</text><rect x="537" y="1048" width="420" height="150" rx="12" fill="#FDECEC" stroke="#DC2626" stroke-width="2.4"/><text x="747" y="1074.0" fill="#DC2626" font-size="17" font-weight="800" font-family="Inter, Arial, sans-serif" text-anchor="middle">Looks right != pass</text><text x="747" y="1100.0" fill="#1F2937" font-size="12.5" font-weight="700" font-family="Inter, Arial, sans-serif" text-anchor="middle">A baked panel that looks right can still be wrong; only a blind cross-model literal-diff passes it.</text><text x="747" y="1122.0" fill="#1F2937" font-size="12.5" font-weight="700" font-family="Inter, Arial, sans-serif" text-anchor="middle">result: +6.2</text><text x="747.5" y="1296" fill="#6B7280" font-size="13" font-weight="600" font-family="Inter, Arial, sans-serif" text-anchor="middle">max 4 rounds | blind cross-model diff | human backstop</text></svg>