<svg xmlns="http://www.w3.org/2000/svg" width="1960" height="1000" viewBox="0 0 1960 1000"><rect x="0" y="0" width="1960" height="1000" rx="0" fill="#FFFFFF"/><text x="56" y="78" fill="#1F2937" font-size="40" font-weight="800" font-family="Inter, Arial, sans-serif" text-anchor="start">ARIS-Movie-Director</text><text x="58" y="110" fill="#6B7280" font-size="17" font-weight="500" font-family="Inter, Arial, sans-serif" text-anchor="start">Audited narrative-comic generation</text><rect x="250" y="150" width="320" height="560" rx="18" fill="#E5EEFB" stroke="#9DBDEB" stroke-width="2"/><text x="270" y="182" fill="#2563EB" font-size="18" font-weight="800" font-family="Inter, Arial, sans-serif" text-anchor="start">1 · Authored Source of Truth</text><rect x="620" y="150" width="740" height="700" rx="18" fill="#FDEBD8" stroke="#F4C18A" stroke-width="2"/><text x="640" y="182" fill="#EA580C" font-size="18" font-weight="800" font-family="Inter, Arial, sans-serif" text-anchor="start">2 · The Audited Spiral  (per panel)</text><rect x="1470" y="150" width="430" height="560" rx="18" fill="#DEF5E6" stroke="#9BD9B0" stroke-width="2"/><text x="1490" y="182" fill="#0E9F6E" font-size="18" font-weight="800" font-family="Inter, Arial, sans-serif" text-anchor="start">3 · Assembly + Release</text><line x1="130" y1="600" x2="410" y2="250" stroke="#4B5563" stroke-width="2.6"/><path d="M410,250 L408,261 L400,255 Z" fill="#4B5563"/><line x1="410" y1="250" x2="410" y2="560" stroke="#4B5563" stroke-width="2.6"/><path d="M410,560 L405,550 L415,550 Z" fill="#4B5563"/><line x1="410" y1="370" x2="410" y2="560" stroke="#4B5563" stroke-width="2.6"/><path d="M410,560 L405,550 L415,550 Z" fill="#4B5563"/><line x1="410" y1="560" x2="760" y2="300" stroke="#4B5563" stroke-width="2.6"/><path d="M760,300 L755,310 L749,302 Z" fill="#4B5563"/><rect x="557" y="419" width="56" height="19" rx="4" fill="#FFFFFF"/><text x="585.0" y="433.0" fill="#4B5563" font-size="11.5" font-weight="700" font-family="Inter, Arial, sans-serif" text-anchor="middle">source</text><line x1="760" y1="300" x2="1020" y2="300" stroke="#4B5563" stroke-width="2.6"/><path d="M1020,300 L1010,305 L1010,295 Z" fill="#4B5563"/><rect x="862" y="289" width="56" height="19" rx="4" fill="#FFFFFF"/><text x="890.0" y="303.0" fill="#4B5563" font-size="11.5" font-weight="700" font-family="Inter, Arial, sans-serif" text-anchor="middle">render</text><line x1="1020" y1="300" x2="1020" y2="520" stroke="#4B5563" stroke-width="2.6"/><path d="M1020,520 L1015,510 L1025,510 Z" fill="#4B5563"/><line x1="1020" y1="520" x2="1020" y2="680" stroke="#4B5563" stroke-width="2.6"/><path d="M1020,680 L1015,670 L1025,670 Z" fill="#4B5563"/><line x1="1020" y1="680" x2="1280" y2="680" stroke="#0E9F6E" stroke-width="2.6"/><path d="M1280,680 L1270,685 L1270,675 Z" fill="#0E9F6E"/><rect x="1129" y="669" width="42" height="19" rx="4" fill="#FFFFFF"/><text x="1150.0" y="683.0" fill="#0E9F6E" font-size="11.5" font-weight="700" font-family="Inter, Arial, sans-serif" text-anchor="middle">keep</text><path d="M1020,680 Q1020,370 1020,300" fill="none" stroke="#EA580C" stroke-width="2.6" stroke-dasharray="8 5"/><path d="M1020,300 L1025,310 L1015,310 Z" fill="#EA580C"/><rect x="968" y="359" width="105" height="19" rx="4" fill="#FFFFFF"/><text x="1020.0" y="373.0" fill="#EA580C" font-size="11.5" font-weight="700" font-family="Inter, Arial, sans-serif" text-anchor="middle">RETRY (max 4)</text><line x1="1020" y1="520" x2="760" y2="600" stroke="#4B5563" stroke-width="2.6"/><path d="M760,600 L768,593 L771,602 Z" fill="#4B5563"/><rect x="866" y="549" width="49" height="19" rx="4" fill="#FFFFFF"/><text x="890.0" y="563.0" fill="#4B5563" font-size="11.5" font-weight="700" font-family="Inter, Arial, sans-serif" text-anchor="middle">write</text><line x1="1280" y1="680" x2="1705" y2="300" stroke="#4B5563" stroke-width="2.6"/><path d="M1705,300 L1701,310 L1694,303 Z" fill="#4B5563"/><path d="M1705,300 Q1362,450 1020,300" fill="none" stroke="#2563EB" stroke-width="2.6" stroke-dasharray="8 5"/><path d="M1020,300 L1031,300 L1027,308 Z" fill="#2563EB"/><rect x="1314" y="439" width="98" height="19" rx="4" fill="#FFFFFF"/><text x="1362.5" y="453.0" fill="#2563EB" font-size="11.5" font-weight="700" font-family="Inter, Arial, sans-serif" text-anchor="middle">repair drift</text><line x1="1705" y1="300" x2="1705" y2="540" stroke="#4B5563" stroke-width="2.6"/><path d="M1705,540 L1700,530 L1710,530 Z" fill="#4B5563"/><rect x="1677" y="409" width="56" height="19" rx="4" fill="#FFFFFF"/><text x="1705.0" y="423.0" fill="#4B5563" font-size="11.5" font-weight="700" font-family="Inter, Arial, sans-serif" text-anchor="middle">accept</text><rect x="55" y="320" width="150" height="200" rx="12" fill="#FFFFFF" stroke="#CBD2DC" stroke-width="2" stroke-dasharray="6 5"/><text x="130" y="346.0" fill="#1F2937" font-size="14" font-weight="800" font-family="Inter, Arial, sans-serif" text-anchor="middle">researcher</text><text x="130" y="364.0" fill="#6B7280" font-size="11" font-weight="600" font-family="Inter, Arial, sans-serif" text-anchor="middle">hands over the night</text><text x="130" y="508.0" fill="#6B7280" font-size="10" font-weight="600" font-family="Inter, Arial, sans-serif" text-anchor="middle">〔ARIS chibi here〕</text><rect x="65" y="570" width="130" height="60" rx="12" fill="#FFFFFF" stroke="#6B7280" stroke-width="2"/><text x="130" y="593" fill="#1F2937" font-size="18" font-weight="800" font-family="Inter, Arial, sans-serif" text-anchor="middle">story brief</text><text x="130" y="615" fill="#6B7280" font-size="13" font-weight="600" font-family="Inter, Arial, sans-serif" text-anchor="middle">24h deadline</text><rect x="310" y="215" width="200" height="70" rx="12" fill="#FFFFFF" stroke="#2563EB" stroke-width="2"/><text x="410" y="243" fill="#1F2937" font-size="18" font-weight="800" font-family="Inter, Arial, sans-serif" text-anchor="middle">outline</text><text x="410" y="265" fill="#6B7280" font-size="13" font-weight="600" font-family="Inter, Arial, sans-serif" text-anchor="middle">story beats</text><rect x="310" y="335" width="200" height="70" rx="12" fill="#FFFFFF" stroke="#2563EB" stroke-width="2"/><text x="410" y="363" fill="#1F2937" font-size="18" font-weight="800" font-family="Inter, Arial, sans-serif" text-anchor="middle">storyboard</text><text x="410" y="385" fill="#6B7280" font-size="13" font-weight="600" font-family="Inter, Arial, sans-serif" text-anchor="middle">scene + dialogue + literals</text><rect x="290" y="517" width="240" height="86" rx="12" fill="#F8FAFD" stroke="#2563EB" stroke-width="2"/><text x="410" y="553" fill="#1F2937" font-size="18" font-weight="800" font-family="Inter, Arial, sans-serif" text-anchor="middle">comic.json</text><text x="410" y="575" fill="#6B7280" font-size="13" font-weight="600" font-family="Inter, Arial, sans-serif" text-anchor="middle">single source of truth</text><rect x="660" y="263" width="200" height="74" rx="12" fill="#FFFFFF" stroke="#EA580C" stroke-width="2"/><text x="760" y="293" fill="#1F2937" font-size="18" font-weight="800" font-family="Inter, Arial, sans-serif" text-anchor="middle">content-SVG</text><text x="760" y="315" fill="#6B7280" font-size="13" font-weight="600" font-family="Inter, Arial, sans-serif" text-anchor="middle">exact SVG blueprint</text><rect x="905" y="257" width="230" height="86" rx="12" fill="#FFFFFF" stroke="#EA580C" stroke-width="2"/><text x="1020" y="293" fill="#1F2937" font-size="18" font-weight="800" font-family="Inter, Arial, sans-serif" text-anchor="middle">image_gen BAKE</text><text x="1020" y="315" fill="#6B7280" font-size="13" font-weight="600" font-family="Inter, Arial, sans-serif" text-anchor="middle">blueprint + identity</text><rect x="850" y="432" width="340" height="175" rx="12" fill="#FFFFFF" stroke="#DC2626" stroke-width="2"/><text x="1020" y="513" fill="#1F2937" font-size="18" font-weight="800" font-family="Inter, Arial, sans-serif" text-anchor="middle">panel_gate</text><text x="1020" y="535" fill="#6B7280" font-size="13" font-weight="600" font-family="Inter, Arial, sans-serif" text-anchor="middle">CC | Gemini | Codex</text><path d="M1020,648.0 L1130.0,680 L1020,712.0 L910.0,680 Z" fill="#FFFFFF" stroke="#EA580C" stroke-width="2.4"/><text x="1020" y="673" fill="#1F2937" font-size="18" font-weight="800" font-family="Inter, Arial, sans-serif" text-anchor="middle">verdict</text><text x="1020" y="695" fill="#6B7280" font-size="13" font-weight="600" font-family="Inter, Arial, sans-serif" text-anchor="middle">literal diff</text><rect x="1225" y="652" width="110" height="56" rx="12" fill="#FFFFFF" stroke="#0E9F6E" stroke-width="2"/><text x="1280" y="673" fill="#1F2937" font-size="18" font-weight="800" font-family="Inter, Arial, sans-serif" text-anchor="middle">KEEP</text><text x="1280" y="695" fill="#6B7280" font-size="13" font-weight="600" font-family="Inter, Arial, sans-serif" text-anchor="middle">panel accepted</text><rect x="660" y="545" width="200" height="110" rx="12" fill="#F8FAFD" stroke="#EA580C" stroke-width="2"/><text x="760" y="593" fill="#1F2937" font-size="18" font-weight="800" font-family="Inter, Arial, sans-serif" text-anchor="middle">research-wiki</text><text x="760" y="615" fill="#6B7280" font-size="13" font-weight="600" font-family="Inter, Arial, sans-serif" text-anchor="middle">failures logged</text><rect x="1585" y="257" width="240" height="86" rx="12" fill="#FFFFFF" stroke="#0E9F6E" stroke-width="2"/><text x="1705" y="293" fill="#1F2937" font-size="18" font-weight="800" font-family="Inter, Arial, sans-serif" text-anchor="middle">page assembly_gate</text><text x="1705" y="315" fill="#6B7280" font-size="13" font-weight="600" font-family="Inter, Arial, sans-serif" text-anchor="middle">coherence + drift check</text><rect x="1585" y="480" width="240" height="120" rx="12" fill="#FFFFFF" stroke="#0E9F6E" stroke-width="2"/><text x="1705" y="533" fill="#1F2937" font-size="18" font-weight="800" font-family="Inter, Arial, sans-serif" text-anchor="middle">release</text><text x="1705" y="555" fill="#6B7280" font-size="13" font-weight="600" font-family="Inter, Arial, sans-serif" text-anchor="middle">PNG panels + HTML</text><rect x="810" y="785" width="420" height="150" rx="12" fill="#FDECEC" stroke="#DC2626" stroke-width="2.4"/><text x="1020" y="811.0" fill="#DC2626" font-size="17" font-weight="800" font-family="Inter, Arial, sans-serif" text-anchor="middle">Looks right != pass</text><text x="1020" y="837.0" fill="#1F2937" font-size="12.5" font-weight="700" font-family="Inter, Arial, sans-serif" text-anchor="middle">a beautiful baked panel</text><text x="1020" y="859.0" fill="#1F2937" font-size="12.5" font-weight="700" font-family="Inter, Arial, sans-serif" text-anchor="middle">expected +6.2 / observed +6.25</text><text x="980.0" y="978" fill="#6B7280" font-size="13" font-weight="600" font-family="Inter, Arial, sans-serif" text-anchor="middle">max 4 retries/panel | max 6 repairs/run | human backstop</text></svg>