<svg xmlns="http://www.w3.org/2000/svg" width="1680" height="960" viewBox="0 0 1680 960"><rect x="0" y="0" width="1680" height="960" rx="0" fill="#0A0E27" opacity="1.0"/><rect x="0" y="0" width="1680" height="960" rx="0" fill="none" opacity="1.0" stroke="#1b2240" stroke-width="2"/><text x="54" y="58" fill="#FFB000" font-size="30" font-weight="800" font-family="Inter, Helvetica Neue, sans-serif" text-anchor="start" letter-spacing="1" opacity="1.0">ARIS-Movie-Director</text><text x="56" y="84" fill="#8C97B8" font-size="15" font-weight="500" font-family="JetBrains Mono, Menlo, monospace" text-anchor="start" letter-spacing="2" opacity="1.0">Audited Spiral Generation for Narrative Comics</text><rect x="990" y="30" width="640" height="62" rx="10" fill="#10162B" opacity="1.0" stroke="#2A3552" stroke-width="1.2"/><circle cx="1020" cy="56" r="10.5" fill="#F0C89B" opacity="1.0"/><path d="M1008.0,53.0 q12.0,-16.5 24.0,0 z" fill="#2A2A33"/><rect x="1016.25" y="54.5" width="2.4000000000000004" height="2.4000000000000004" rx="0" fill="#243049" opacity="1.0"/><rect x="1021.5" y="54.5" width="2.4000000000000004" height="2.4000000000000004" rx="0" fill="#243049" opacity="1.0"/><rect x="1009.5" y="66.5" width="21.0" height="16.5" rx="4.5" fill="#5B8CFF" opacity="1.0"/><text x="1038" y="53" fill="#E4E9F7" font-size="12" font-weight="700" font-family="JetBrains Mono, Menlo, monospace" text-anchor="start" opacity="1.0">Claude</text><text x="1038" y="69" fill="#8C97B8" font-size="10.5" font-weight="400" font-family="JetBrains Mono, Menlo, monospace" text-anchor="start" opacity="1.0">executor · makes</text><circle cx="1175" cy="56" r="10.5" fill="#F0C89B" opacity="1.0"/><path d="M1163.0,53.0 q12.0,-16.5 24.0,0 z" fill="#2A2A33"/><rect x="1171.25" y="54.5" width="2.4000000000000004" height="2.4000000000000004" rx="0" fill="#243049" opacity="1.0"/><rect x="1176.5" y="54.5" width="2.4000000000000004" height="2.4000000000000004" rx="0" fill="#243049" opacity="1.0"/><path d="M1167.5,60.5 q7.5,9.0 15.0,0" fill="none" stroke="#2A2A33" stroke-width="3.0"/><rect x="1164.5" y="66.5" width="21.0" height="16.5" rx="4.5" fill="#00C896" opacity="1.0"/><text x="1194" y="53" fill="#E4E9F7" font-size="12" font-weight="700" font-family="JetBrains Mono, Menlo, monospace" text-anchor="start" opacity="1.0">GPT-5.5 · Gemini</text><text x="1194" y="69" fill="#8C97B8" font-size="10.5" font-weight="400" font-family="JetBrains Mono, Menlo, monospace" text-anchor="start" opacity="1.0">reviewers · judge (other families)</text><text x="1420" y="53" fill="#E4E9F7" font-size="12" font-weight="700" font-family="Inter, Helvetica Neue, sans-serif" text-anchor="start" opacity="1.0">👤 human</text><text x="1420" y="69" fill="#8C97B8" font-size="10.5" font-weight="400" font-family="JetBrains Mono, Menlo, monospace" text-anchor="start" opacity="1.0">approves story · overrides flags</text><text x="1626" y="108" fill="#8C97B8" font-size="12.5" font-weight="500" font-family="JetBrains Mono, Menlo, monospace" text-anchor="end" opacity="0.85">“the one who makes can't be the only one who judges.”</text><text x="44" y="150" fill="#00C896" font-size="13" font-weight="800" font-family="JetBrains Mono, Menlo, monospace" text-anchor="start" letter-spacing="1" opacity="1.0">① AUTHORED SOURCE OF TRUTH</text><text x="44" y="168" fill="#8C97B8" font-size="10.5" font-weight="400" font-family="JetBrains Mono, Menlo, monospace" text-anchor="start" opacity="1.0">design layer · human-approved</text><rect x="44" y="184" width="330" height="86" rx="11" fill="#0E1322" opacity="1.0" stroke="#2A3552" stroke-width="1.4"/><rect x="44" y="184" width="330" height="26" rx="11" fill="#10162B" opacity="1.0"/><text x="56" y="202" fill="#FFB000" font-size="12.5" font-weight="800" font-family="JetBrains Mono, Menlo, monospace" text-anchor="start" opacity="1.0">素材库 · Asset Library</text><text x="56" y="260" fill="#8C97B8" font-size="10" font-weight="400" font-family="JetBrains Mono, Menlo, monospace" text-anchor="start" opacity="1.0">one single-source builder → one visual dialect</text><rect x="60" y="228" width="46" height="20" rx="5" fill="#0B1020" opacity="1.0" stroke="#FFB000" stroke-width="1.2"/><text x="83" y="242" fill="#FFB000" font-size="9" font-weight="800" font-family="JetBrains Mono, Menlo, monospace" text-anchor="middle" opacity="1.0">T-18:40</text><rect x="118" y="226" width="52" height="26" rx="6" fill="#241019" opacity="1.0" stroke="#FF3366" stroke-width="1.6"/><text x="144" y="243" fill="#FF3366" font-size="10" font-weight="800" font-family="JetBrains Mono, Menlo, monospace" text-anchor="middle" opacity="1.0">REJECT</text><rect x="182" y="226" width="52" height="26" rx="6" fill="#0E2A22" opacity="1.0" stroke="#00C896" stroke-width="1.6"/><text x="208" y="243" fill="#00C896" font-size="10" font-weight="800" font-family="JetBrains Mono, Menlo, monospace" text-anchor="middle" opacity="1.0">ACCEPT</text><circle cx="260" cy="238" r="4" fill="#FFFFFF" opacity="1.0"/><circle cx="276" cy="232" r="3" fill="#FFB000" opacity="1.0"/><circle cx="288" cy="242" r="3" fill="#FF3366" opacity="1.0"/><line x1="260" y1="238" x2="276" y2="232" stroke="#E4E9F7" stroke-width="1" opacity="0.5"/><line x1="276" y1="232" x2="288" y2="242" stroke="#E4E9F7" stroke-width="1" opacity="0.5"/><text x="274" y="258" fill="#8C97B8" font-size="8.5" font-weight="400" font-family="JetBrains Mono, Menlo, monospace" text-anchor="middle" opacity="1.0">star-map</text><rect x="44" y="282" width="330" height="52" rx="11" fill="#0E1322" opacity="1.0" stroke="#2A3552" stroke-width="1.4"/><rect x="44" y="282" width="330" height="26" rx="11" fill="#10162B" opacity="1.0"/><text x="56" y="300" fill="#B066FF" font-size="12.5" font-weight="800" font-family="JetBrains Mono, Menlo, monospace" text-anchor="start" opacity="1.0">大纲 · Outline</text><text x="56" y="324" fill="#8C97B8" font-size="10" font-weight="400" font-family="JetBrains Mono, Menlo, monospace" text-anchor="start" opacity="1.0">13 beats</text><circle cx="194" cy="316" r="3.4" fill="#FFB000" opacity="0.9"/><circle cx="207" cy="316" r="3.4" fill="#B066FF" opacity="0.9"/><circle cx="220" cy="316" r="3.4" fill="#B066FF" opacity="0.9"/><circle cx="233" cy="316" r="3.4" fill="#B066FF" opacity="0.9"/><circle cx="246" cy="316" r="3.4" fill="#FFB000" opacity="0.9"/><circle cx="259" cy="316" r="3.4" fill="#B066FF" opacity="0.9"/><circle cx="272" cy="316" r="3.4" fill="#B066FF" opacity="0.9"/><circle cx="285" cy="316" r="3.4" fill="#B066FF" opacity="0.9"/><circle cx="298" cy="316" r="3.4" fill="#FFB000" opacity="0.9"/><circle cx="311" cy="316" r="3.4" fill="#B066FF" opacity="0.9"/><circle cx="324" cy="316" r="3.4" fill="#B066FF" opacity="0.9"/><circle cx="337" cy="316" r="3.4" fill="#B066FF" opacity="0.9"/><circle cx="350" cy="316" r="3.4" fill="#FFB000" opacity="0.9"/><rect x="44" y="346" width="330" height="72" rx="11" fill="#0E1322" opacity="1.0" stroke="#2A3552" stroke-width="1.4"/><rect x="44" y="346" width="330" height="26" rx="11" fill="#10162B" opacity="1.0"/><text x="56" y="364" fill="#5B8CFF" font-size="12.5" font-weight="800" font-family="JetBrains Mono, Menlo, monospace" text-anchor="start" opacity="1.0">分镜 · Storyboard</text><text x="56" y="408" fill="#8C97B8" font-size="10" font-weight="400" font-family="JetBrains Mono, Menlo, monospace" text-anchor="start" opacity="1.0">per-panel spec</text><text x="56" y="390" fill="#8C97B8" font-size="10" font-weight="400" font-family="JetBrains Mono, Menlo, monospace" text-anchor="start" opacity="1.0">world · scene · characters · bubbles</text><text x="56" y="406" fill="#00C896" font-size="10.5" font-weight="700" font-family="JetBrains Mono, Menlo, monospace" text-anchor="start" opacity="1.0">expected_literals  ← gate's truth</text><rect x="44" y="434" width="330" height="52" rx="11" fill="#12182f" opacity="1.0" stroke="#00C896" stroke-width="1.8"/><text x="209.0" y="456" fill="#00C896" font-size="16" font-weight="800" font-family="JetBrains Mono, Menlo, monospace" text-anchor="middle" opacity="1.0">comic.json</text><text x="209.0" y="474" fill="#8C97B8" font-size="9.5" font-weight="400" font-family="JetBrains Mono, Menlo, monospace" text-anchor="middle" opacity="1.0">content_svg · expected_literals · identity_ref</text><text x="209.0" y="520" fill="#8C97B8" font-size="10" font-weight="500" font-family="JetBrains Mono, Menlo, monospace" text-anchor="middle" opacity="0.9">Claude proposes ‖ codex+gemini critique → 👤 approve</text><rect x="44" y="530" width="330" height="2" rx="0" fill="#B066FF" opacity="0.4"/><line x1="380" y1="460" x2="432" y2="460" stroke="#E4E9F7" stroke-width="2.4" opacity="1.0"/><path d="M432,460 L425.0,463.8 L425.0,456.2 Z" fill="#E4E9F7" opacity="1.0"/><text x="815.0" y="150" fill="#FFB000" font-size="15" font-weight="800" font-family="JetBrains Mono, Menlo, monospace" text-anchor="middle" letter-spacing="2" opacity="1.0">② THE AUDITED SPIRAL</text><text x="815.0" y="170" fill="#8C97B8" font-size="11" font-weight="400" font-family="JetBrains Mono, Menlo, monospace" text-anchor="middle" opacity="1.0">generate → cross-model verify → remember · bounded, never self-acquits</text><rect x="522" y="424" width="156" height="92" rx="12" fill="#12182f" opacity="1.0" stroke="#FFB000" stroke-width="2.2"/><text x="600" y="442" fill="#FFB000" font-size="15" font-weight="800" font-family="JetBrains Mono, Menlo, monospace" text-anchor="middle" opacity="1.0">BAKE</text><rect x="542" y="458" width="42" height="34" rx="4" fill="#0B1020" opacity="1.0" stroke="#8C97B8" stroke-width="1.2"/><text x="563" y="479" fill="#8C97B8" font-size="9" font-weight="700" font-family="JetBrains Mono, Menlo, monospace" text-anchor="middle" opacity="1.0">SVG</text><line x1="588" y1="475" x2="612" y2="475" stroke="#E4E9F7" stroke-width="2" opacity="1.0"/><path d="M612,475 L605.0,478.8 L605.0,471.2 Z" fill="#E4E9F7" opacity="1.0"/><rect x="616" y="458" width="42" height="34" rx="4" fill="#13233a" opacity="1.0" stroke="#00C896" stroke-width="1.2"/><rect x="622" y="464" width="9" height="7" rx="1" fill="#00C896" opacity="0.7"/><rect x="622" y="474" width="9" height="7" rx="1" fill="#5B8CFF" opacity="0.7"/><rect x="622" y="484" width="9" height="7" rx="1" fill="#FFB000" opacity="0.7"/><rect x="634" y="464" width="9" height="7" rx="1" fill="#5B8CFF" opacity="0.7"/><rect x="634" y="474" width="9" height="7" rx="1" fill="#FFB000" opacity="0.7"/><rect x="634" y="484" width="9" height="7" rx="1" fill="#00C896" opacity="0.7"/><rect x="646" y="464" width="9" height="7" rx="1" fill="#FFB000" opacity="0.7"/><rect x="646" y="474" width="9" height="7" rx="1" fill="#00C896" opacity="0.7"/><rect x="646" y="484" width="9" height="7" rx="1" fill="#5B8CFF" opacity="0.7"/><text x="600" y="508" fill="#8C97B8" font-size="9.5" font-weight="400" font-family="JetBrains Mono, Menlo, monospace" text-anchor="middle" opacity="1.0">codex image_gen · 2 refs</text><rect x="794" y="418" width="172" height="104" rx="12" fill="#10162B" opacity="1.0" stroke="#00C896" stroke-width="2.2"/><text x="880" y="436" fill="#00C896" font-size="14" font-weight="800" font-family="JetBrains Mono, Menlo, monospace" text-anchor="middle" opacity="1.0">panel_gate</text><rect x="800" y="452" width="48" height="40" rx="6" fill="#0B1020" opacity="1.0" stroke="#5B8CFF" stroke-width="1.4"/><text x="824" y="468" fill="#5B8CFF" font-size="11" font-weight="800" font-family="JetBrains Mono, Menlo, monospace" text-anchor="middle" opacity="1.0">CC</text><text x="824" y="482" fill="#8C97B8" font-size="8" font-weight="400" font-family="JetBrains Mono, Menlo, monospace" text-anchor="middle" opacity="1.0">narrative</text><rect x="856" y="452" width="48" height="40" rx="6" fill="#0B1020" opacity="1.0" stroke="#00C896" stroke-width="1.4"/><text x="880" y="468" fill="#00C896" font-size="11" font-weight="800" font-family="JetBrains Mono, Menlo, monospace" text-anchor="middle" opacity="1.0">Gem</text><text x="880" y="482" fill="#8C97B8" font-size="8" font-weight="400" font-family="JetBrains Mono, Menlo, monospace" text-anchor="middle" opacity="1.0">visual</text><rect x="912" y="452" width="48" height="40" rx="6" fill="#0B1020" opacity="1.0" stroke="#FFB000" stroke-width="1.4"/><text x="936" y="468" fill="#FFB000" font-size="11" font-weight="800" font-family="JetBrains Mono, Menlo, monospace" text-anchor="middle" opacity="1.0">Cdx</text><text x="936" y="482" fill="#8C97B8" font-size="8" font-weight="400" font-family="JetBrains Mono, Menlo, monospace" text-anchor="middle" opacity="1.0">visual</text><text x="880" y="512" fill="#E4E9F7" font-size="10.5" font-weight="700" font-family="JetBrains Mono, Menlo, monospace" text-anchor="middle" opacity="1.0">deterministic JS verdict</text><text x="880" y="526" fill="#8C97B8" font-size="9" font-weight="400" font-family="JetBrains Mono, Menlo, monospace" text-anchor="middle" opacity="1.0">blind observed_literals  ⊖  expected_literals</text><line x1="678" y1="470" x2="792" y2="470" stroke="#E4E9F7" stroke-width="2.4" opacity="1.0"/><path d="M792,470 L785.0,473.8 L785.0,466.2 Z" fill="#E4E9F7" opacity="1.0"/><rect x="1032" y="430" width="116" height="80" rx="10" fill="#0E2A22" opacity="1.0" stroke="#00C896" stroke-width="2"/><text x="1090" y="454" fill="#00C896" font-size="14" font-weight="800" font-family="JetBrains Mono, Menlo, monospace" text-anchor="middle" opacity="1.0">KEEP</text><rect x="1064" y="468" width="24" height="16" rx="2" fill="#13233a" opacity="0.8" stroke="#00C896" stroke-width="1"/><rect x="1064" y="488" width="24" height="16" rx="2" fill="#13233a" opacity="0.8" stroke="#00C896" stroke-width="1"/><rect x="1092" y="468" width="24" height="16" rx="2" fill="#13233a" opacity="0.8" stroke="#00C896" stroke-width="1"/><rect x="1092" y="488" width="24" height="16" rx="2" fill="#13233a" opacity="0.8" stroke="#00C896" stroke-width="1"/><text x="1090" y="522" fill="#8C97B8" font-size="10" font-weight="400" font-family="JetBrains Mono, Menlo, monospace" text-anchor="middle" opacity="1.0">page pool</text><line x1="968" y1="470" x2="1030" y2="470" stroke="#00C896" stroke-width="2.4" opacity="1.0"/><path d="M1030,470 L1023.0,473.8 L1023.0,466.2 Z" fill="#00C896" opacity="1.0"/><text x="985.0" y="458" fill="#00C896" font-size="10" font-weight="700" font-family="JetBrains Mono, Menlo, monospace" text-anchor="middle" opacity="1.0">keep</text><path d="M840,418 C760,320 640,320 600,424" stroke="#00C896" stroke-width="2.4" fill="none"/><line x1="604" y1="412" x2="600" y2="424" stroke="#00C896" stroke-width="2.2" opacity="1.0"/><path d="M600,424 L598.6,416.1 L605.9,418.6 Z" fill="#00C896" opacity="1.0"/><text x="740.0" y="312" fill="#00C896" font-size="11" font-weight="800" font-family="JetBrains Mono, Menlo, monospace" text-anchor="middle" opacity="1.0">RETRY  ·  re-bake with failure_mode invariant</text><text x="740.0" y="328" fill="#8C97B8" font-size="9.5" font-weight="400" font-family="JetBrains Mono, Menlo, monospace" text-anchor="middle" opacity="1.0">inner perimeter · literal correctness · ≤4 attempts/panel</text><rect x="998" y="686" width="184" height="68" rx="11" fill="#10162B" opacity="1.0" stroke="#B066FF" stroke-width="2"/><text x="1090" y="708" fill="#B066FF" font-size="13" font-weight="800" font-family="JetBrains Mono, Menlo, monospace" text-anchor="middle" opacity="1.0">page assembly_gate</text><text x="1090" y="726" fill="#8C97B8" font-size="9" font-weight="400" font-family="JetBrains Mono, Menlo, monospace" text-anchor="middle" opacity="1.0">cast-aware: reading order/rhythm</text><text x="1090" y="740" fill="#8C97B8" font-size="9" font-weight="400" font-family="JetBrains Mono, Menlo, monospace" text-anchor="middle" opacity="1.0">identity/style · legibility/safe-zone</text><line x1="1090" y1="510" x2="1090" y2="684" stroke="#00C896" stroke-width="2.2" opacity="1.0"/><path d="M1090,684 L1086.2,677.0 L1093.8,677.0 Z" fill="#00C896" opacity="1.0"/><path d="M998,720 C560,840 480,620 590,516" stroke="#B066FF" stroke-width="2.6" fill="none" stroke-dasharray="9 6"/><line x1="584" y1="528" x2="590" y2="516" stroke="#B066FF" stroke-width="2.6" opacity="1.0"/><path d="M590,516 L590.3,524.0 L583.4,520.6 Z" fill="#B066FF" opacity="1.0"/><text x="815.0" y="838" fill="#B066FF" font-size="11" font-weight="800" font-family="JetBrains Mono, Menlo, monospace" text-anchor="middle" opacity="1.0">DRIFT  ·  re-bake the named drifting panels</text><text x="815.0" y="854" fill="#8C97B8" font-size="9.5" font-weight="400" font-family="JetBrains Mono, Menlo, monospace" text-anchor="middle" opacity="1.0">outer perimeter · page coherence · ≤6 rollbacks/run</text><text x="522" y="540" fill="#8C97B8" font-size="10" font-weight="700" font-family="JetBrains Mono, Menlo, monospace" text-anchor="start" opacity="1.0">research-wiki · the loop's exhaust trail</text><circle cx="530" cy="562" r="5" fill="#00C896" opacity="0.95"/><text x="530" y="577" fill="#8C97B8" font-size="8" font-weight="400" font-family="JetBrains Mono, Menlo, monospace" text-anchor="middle" opacity="0.9">attempt</text><line x1="530" y1="562" x2="592" y2="570" stroke="#8C97B8" stroke-width="1" opacity="0.4"/><circle cx="592" cy="570" r="5" fill="#FF3366" opacity="0.5"/><text x="592" y="585" fill="#8C97B8" font-size="8" font-weight="400" font-family="JetBrains Mono, Menlo, monospace" text-anchor="middle" opacity="0.55">failed</text><line x1="592" y1="570" x2="654" y2="562" stroke="#8C97B8" stroke-width="1" opacity="0.4"/><circle cx="654" cy="562" r="5" fill="#FFB000" opacity="0.95"/><text x="654" y="577" fill="#8C97B8" font-size="8" font-weight="400" font-family="JetBrains Mono, Menlo, monospace" text-anchor="middle" opacity="0.9">review</text><line x1="654" y1="562" x2="716" y2="568" stroke="#8C97B8" stroke-width="1" opacity="0.4"/><circle cx="716" cy="568" r="5" fill="#00C896" opacity="0.95"/><text x="716" y="583" fill="#8C97B8" font-size="8" font-weight="400" font-family="JetBrains Mono, Menlo, monospace" text-anchor="middle" opacity="0.9">keep</text><path d="M592,570 q-70,-10 -52,-110" stroke="#00C896" stroke-width="1.4" fill="none" stroke-dasharray="3 4" opacity="0.6"/><text x="514" y="522" fill="#00C896" font-size="9" font-weight="700" font-family="JetBrains Mono, Menlo, monospace" text-anchor="middle" opacity="0.85">repair_pattern ↻</text><line x1="1182" y1="720" x2="1530" y2="720" stroke="#FF3366" stroke-width="2.8" opacity="1.0"/><path d="M1530,720 L1523.0,723.8 L1523.0,716.2 Z" fill="#FF3366" opacity="1.0"/><rect x="1530" y="698" width="118" height="44" rx="8" fill="#241019" opacity="1.0" stroke="#FF3366" stroke-width="2"/><text x="1589" y="718" fill="#FF3366" font-size="13" font-weight="800" font-family="Inter, Helvetica Neue, sans-serif" text-anchor="middle" opacity="1.0">👤 FLAG</text><text x="1589" y="734" fill="#FF3366" font-size="9.5" font-weight="600" font-family="JetBrains Mono, Menlo, monospace" text-anchor="middle" opacity="1.0">human override</text><text x="1589" y="760" fill="#8C97B8" font-size="9" font-weight="400" font-family="JetBrains Mono, Menlo, monospace" text-anchor="middle" opacity="1.0">bound hit (4/6) → eject</text><text x="1589" y="774" fill="#8C97B8" font-size="9" font-weight="400" font-family="JetBrains Mono, Menlo, monospace" text-anchor="middle" opacity="1.0">drives, never self-acquits</text><path d="M820,510 C700,620 428,620 348,622" stroke="#FF3366" stroke-width="1.6" fill="none" opacity="0.55" stroke-dasharray="4 4"/><text x="338" y="614" fill="#FF3366" font-size="9" font-weight="700" font-family="JetBrains Mono, Menlo, monospace" text-anchor="end" opacity="0.8">on REJECT</text><rect x="58" y="628" width="310" height="214" rx="12" fill="#160a12" opacity="1.0" stroke="#FF3366" stroke-width="2.4"/><text x="213.0" y="650" fill="#FF3366" font-size="12.5" font-weight="800" font-family="JetBrains Mono, Menlo, monospace" text-anchor="middle" opacity="1.0">a beautiful panel can still be WRONG</text><rect x="76" y="662" width="120" height="84" rx="6" fill="#1a2740" opacity="1.0" stroke="#2A3552" stroke-width="1.2"/><circle cx="108" cy="698" r="12" fill="#5B8CFF" opacity="1.0"/><circle cx="144" cy="698" r="12" fill="#00C896" opacity="1.0"/><rect x="88" y="724" width="96" height="10" rx="3" fill="#0B1020" opacity="1.0"/><text x="136" y="732" fill="#FF3366" font-size="8.5" font-weight="700" font-family="JetBrains Mono, Menlo, monospace" text-anchor="middle" opacity="1.0">{"city":"Tok|ya"}</text><rect x="208" y="662" width="134" height="84" rx="6" fill="#0B1020" opacity="1.0" stroke="#2A3552" stroke-width="1.2"/><text x="218" y="678" fill="#8C97B8" font-size="9" font-weight="700" font-family="JetBrains Mono, Menlo, monospace" text-anchor="start" opacity="1.0">JS token-diff</text><text x="218" y="694" fill="#00C896" font-size="9" font-weight="700" font-family="JetBrains Mono, Menlo, monospace" text-anchor="start" opacity="1.0">expected: +6.2  Tok|yo</text><text x="218" y="710" fill="#FF3366" font-size="9" font-weight="700" font-family="JetBrains Mono, Menlo, monospace" text-anchor="start" opacity="1.0">Gemini:  +6.25  ✗</text><text x="218" y="726" fill="#FF3366" font-size="9" font-weight="700" font-family="JetBrains Mono, Menlo, monospace" text-anchor="start" opacity="1.0">Codex:   garbled ✗</text><g transform="rotate(-8 213.0 778)"><rect x="121.0" y="762" width="184" height="34" rx="6" fill="#241019" opacity="1.0" stroke="#FF3366" stroke-width="2.6"/><text x="213.0" y="785" fill="#FF3366" font-size="13" font-weight="800" font-family="JetBrains Mono, Menlo, monospace" text-anchor="middle" opacity="1.0">REJECT · content_corruption</text></g><text x="213.0" y="820" fill="#8C97B8" font-size="9.5" font-weight="600" font-family="JetBrains Mono, Menlo, monospace" text-anchor="middle" opacity="1.0">single-vote veto · +6.25 ≠ +6.2 · aesthetic ≠ verified</text><text x="1290" y="150" fill="#00C896" font-size="13" font-weight="800" font-family="JetBrains Mono, Menlo, monospace" text-anchor="start" letter-spacing="1" opacity="1.0">③ RELEASE</text><text x="1290" y="168" fill="#8C97B8" font-size="10.5" font-weight="400" font-family="JetBrains Mono, Menlo, monospace" text-anchor="start" opacity="1.0">downstream products</text><rect x="1290" y="295" width="330" height="150" rx="11" fill="#0E1322" opacity="1.0" stroke="#2A3552" stroke-width="1.4"/><text x="1455" y="320" fill="#E4E9F7" font-size="13" font-weight="800" font-family="JetBrains Mono, Menlo, monospace" text-anchor="middle" opacity="1.0">accepted pages</text><line x1="1455" y1="333" x2="1455" y2="357" stroke="#E4E9F7" stroke-width="2" opacity="1.0"/><path d="M1455,357 L1451.2,350.0 L1458.8,350.0 Z" fill="#E4E9F7" opacity="1.0"/><rect x="1380" y="363" width="150" height="30" rx="6" fill="#12182f" opacity="1.0" stroke="#00C896" stroke-width="1.6"/><text x="1455" y="383" fill="#00C896" font-size="12" font-weight="800" font-family="JetBrains Mono, Menlo, monospace" text-anchor="middle" opacity="1.0">comic.json</text><line x1="1455" y1="395" x2="1455" y2="419" stroke="#E4E9F7" stroke-width="2" opacity="1.0"/><path d="M1455,419 L1451.2,412.0 L1458.8,412.0 Z" fill="#E4E9F7" opacity="1.0"/><rect x="1360" y="425" width="190" height="118" rx="6" fill="#0B1020" opacity="1.0" stroke="#00C896" stroke-width="1.8"/><text x="1455" y="439" fill="#00C896" font-size="9.5" font-weight="700" font-family="JetBrains Mono, Menlo, monospace" text-anchor="middle" opacity="1.0">single-file HTML viewer</text><rect x="1372" y="449" width="52" height="30" rx="3" fill="#16203a" opacity="1.0" stroke="#2A3552" stroke-width="1"/><rect x="1432" y="449" width="52" height="30" rx="3" fill="#16203a" opacity="1.0" stroke="#2A3552" stroke-width="1"/><rect x="1492" y="449" width="52" height="30" rx="3" fill="#16203a" opacity="1.0" stroke="#2A3552" stroke-width="1"/><rect x="1372" y="483" width="170" height="30" rx="3" fill="#13233a" opacity="1.0" stroke="#2A3552" stroke-width="1"/><rect x="1372" y="517" width="80" height="22" rx="3" fill="#16203a" opacity="1.0" stroke="#2A3552" stroke-width="1"/><rect x="1460" y="517" width="82" height="22" rx="3" fill="#16203a" opacity="1.0" stroke="#2A3552" stroke-width="1"/><text x="840.0" y="940" fill="#8C97B8" font-size="11" font-weight="500" font-family="JetBrains Mono, Menlo, monospace" text-anchor="middle" opacity="0.85">deterministic blueprint → cross-model adversarial gate → wiki memory → bounded repair → human backstop</text></svg>