<svg xmlns="http://www.w3.org/2000/svg" width="1180" height="660" viewBox="0 0 1180 660"><rect x="0" y="0" width="1180" height="660" rx="0" fill="#0A0E27" opacity="1.0"/><text x="590.0" y="44" fill="#E4E9F7" font-size="20" font-weight="800" font-family="JetBrains Mono, Menlo, monospace" text-anchor="middle" letter-spacing="2">HONEST RE-RUN — RAW SCORING</text><circle cx="590.0" cy="330.0" r="260" fill="#00C896" opacity="0.05"/><rect x="310.0" y="160.0" width="560.0" height="360.0" rx="16.0" fill="#0E1322" opacity="1.0" stroke="#2A3552" stroke-width="2.5"/><rect x="310.0" y="160.0" width="560.0" height="54.0" rx="16.0" fill="#10162B" opacity="1.0"/><text x="590.0" y="196.0" fill="#8C97B8" font-size="20.0" font-weight="800" font-family="JetBrains Mono, Menlo, monospace" text-anchor="middle">REVIEW · RE-RUN</text><text x="346.0" y="260.0" fill="#E4E9F7" font-size="22.0" font-weight="700" font-family="JetBrains Mono, Menlo, monospace" text-anchor="start">2048 samples · raw</text><text x="346.0" y="300.0" fill="#8C97B8" font-size="16.0" font-weight="700" font-family="JetBrains Mono, Menlo, monospace" text-anchor="start">sanitizer: BYPASSED</text><text x="346.0" y="334.0" fill="#00C896" font-size="16.0" font-weight="700" font-family="JetBrains Mono, Menlo, monospace" text-anchor="start">json.loads ✓ clean</text><rect x="650.0" y="246.0" width="184.0" height="120.0" rx="12.0" fill="#0E2A22" opacity="1.0" stroke="#00C896" stroke-width="2.5"/><text x="742.0" y="322.0" fill="#00C896" font-size="56.0" font-weight="800" font-family="JetBrains Mono, Menlo, monospace" text-anchor="middle">0.89</text><text x="742.0" y="352.0" fill="#8C97B8" font-size="13.0" font-weight="400" font-family="JetBrains Mono, Menlo, monospace" text-anchor="middle">exact_parse</text><g transform="rotate(6 501.6 449.0)"><rect x="399.6" y="410.0" width="204.0" height="78.0" rx="15.0" fill="#0E2A22" opacity="1.0" stroke="#00C896" stroke-width="4.5"/><text x="501.6" y="462.5" fill="#00C896" font-size="39.0" font-weight="800" font-family="JetBrains Mono, Menlo, monospace" text-anchor="middle">ACCEPT</text></g><rect x="56" y="96" width="300" height="200" rx="10" fill="#0B1020" opacity="1.0" stroke="#2A3552" stroke-width="1.5"/><text x="80" y="124" fill="#8C97B8" font-size="11" font-weight="400" font-family="JetBrains Mono, Menlo, monospace" text-anchor="start">wandb · exact_parse</text><path d="M80,239 L152,219 L224,193 L320,166" stroke="#00C896" stroke-width="4" fill="none"/><rect x="64" y="238" width="78" height="32" rx="7" fill="#10162B" opacity="1.0" stroke="#2A3552" stroke-width="1.5"/><text x="103" y="261" fill="#AEB9D6" font-size="19" font-weight="800" font-family="JetBrains Mono, Menlo, monospace" text-anchor="middle">0.78</text><rect x="280" y="120" width="78" height="34" rx="7" fill="#0E2A22" opacity="1.0" stroke="#00C896" stroke-width="2"/><text x="319" y="144" fill="#00C896" font-size="20" font-weight="800" font-family="JetBrains Mono, Menlo, monospace" text-anchor="middle">0.89</text><rect x="56" y="330" width="120" height="56" rx="10" fill="#0E2A22" opacity="1.0" stroke="#00C896" stroke-width="2.2"/><text x="100" y="366" fill="#00C896" font-size="22" font-weight="800" font-family="JetBrains Mono, Menlo, monospace" text-anchor="middle">RAW</text><circle cx="150" cy="358" r="11" fill="#00C896"/><text x="116" y="406" fill="#8C97B8" font-size="11" font-weight="400" font-family="JetBrains Mono, Menlo, monospace" text-anchor="middle">locked ON</text><rect x="960" y="40" width="168.0" height="44.0" rx="8.0" fill="#0B1020" opacity="1.0" stroke="#FFB000" stroke-width="1.5"/><text x="974.0" y="68.0" fill="#8C97B8" font-size="12.0" font-weight="700" font-family="JetBrains Mono, Menlo, monospace" text-anchor="start">DDL</text><text x="1116.0" y="68.0" fill="#FFB000" font-size="17.0" font-weight="800" font-family="JetBrains Mono, Menlo, monospace" text-anchor="end">T-02:58</text></svg>