<svg xmlns="http://www.w3.org/2000/svg" width="1200" height="640" viewBox="0 0 1200 640"><rect x="0" y="0" width="1200" height="640" rx="0" fill="#0A0E27" opacity="1.0"/><text x="600.0" y="46" fill="#E4E9F7" font-size="22" font-weight="800" font-family="JetBrains Mono, Menlo, monospace" text-anchor="middle" letter-spacing="2">EVAL PIPELINE — AUDIT GATE</text><rect x="90" y="260" width="170" height="90" rx="12" fill="#10162B" opacity="1.0" stroke="#2A3552" stroke-width="1.8"/><text x="175" y="312" fill="#E4E9F7" font-size="19" font-weight="700" font-family="JetBrains Mono, Menlo, monospace" text-anchor="middle">outputs</text><rect x="330" y="260" width="170" height="90" rx="12" fill="#10162B" opacity="1.0" stroke="#2A3552" stroke-width="1.8"/><text x="415" y="312" fill="#E4E9F7" font-size="19" font-weight="700" font-family="JetBrains Mono, Menlo, monospace" text-anchor="middle">evaluator</text><rect x="570" y="260" width="170" height="90" rx="12" fill="#10162B" opacity="1.0" stroke="#2A3552" stroke-width="1.8"/><text x="655" y="312" fill="#E4E9F7" font-size="19" font-weight="700" font-family="JetBrains Mono, Menlo, monospace" text-anchor="middle">score</text><path d="M262,305 h 56 m -10,-8 l 10,8 l -10,8" stroke="#8C97B8" stroke-width="3" fill="none"/><path d="M502,305 h 56 m -10,-8 l 10,8 l -10,8" stroke="#8C97B8" stroke-width="3" fill="none"/><rect x="800" y="180" width="26" height="260" rx="8" fill="#1A1330" opacity="1.0" stroke="#FFB000" stroke-width="2.5"/><rect x="792" y="170" width="42" height="280" rx="10" fill="none" stroke="#FFB000" stroke-width="2" opacity="0.45"/><g transform="rotate(-5 829.5 146.0)"><rect x="770" y="120" width="119.0" height="52.0" rx="10.0" fill="#1A1330" opacity="1.0" stroke="#FFB000" stroke-width="3.0"/><text x="829.5" y="155.0" fill="#FFB000" font-size="26.0" font-weight="800" font-family="JetBrains Mono, Menlo, monospace" text-anchor="middle">⚠ AUDIT</text></g><rect x="880" y="250" width="190" height="110" rx="12" fill="#1A1330" opacity="1.0" stroke="#FFB000" stroke-width="2.5"/><text x="975" y="308" fill="#FFB000" font-size="44" font-weight="800" font-family="JetBrains Mono, Menlo, monospace" text-anchor="middle">+6.2</text><rect x="906" y="322" width="138" height="26" rx="6" fill="#241019" opacity="1.0" stroke="#FF3366" stroke-width="1.4"/><text x="975" y="340" fill="#FF3366" font-size="11" font-weight="700" font-family="JetBrains Mono, Menlo, monospace" text-anchor="middle">HOLD · not a claim</text><text x="975" y="226" fill="#8C97B8" font-size="14" font-weight="400" font-family="JetBrains Mono, Menlo, monospace" text-anchor="middle">claim?</text><circle cx="415" cy="290" r="58" fill="none" stroke="#E4E9F7" stroke-width="6" opacity="0.9"/><line x1="455" y1="334" x2="505" y2="386" stroke="#E4E9F7" stroke-width="9" stroke-linecap="round"/><circle cx="415" cy="290" r="52" fill="#FFB000" opacity="0.07"/><rect x="96" y="372" width="58.8" height="12.0" rx="2.4" fill="#241019" opacity="1.0" stroke="#FF3366" stroke-width="0.48"/><text x="125.4" y="379.65" fill="#FF3366" font-size="4.5" font-weight="700" font-family="JetBrains Mono, Menlo, monospace" text-anchor="middle">{"city":"Tok|yo"}</text><path d="M128.928,372.9 l -1.5,5.4 l 2.1,2.4000000000000004 l -1.2,3.5999999999999996" stroke="#FF3366" stroke-width="0.48" fill="none" opacity="0.8"/><text x="126" y="366" fill="#8C97B8" font-size="9.5" font-weight="400" font-family="JetBrains Mono, Menlo, monospace" text-anchor="middle">prior evidence</text><rect x="980" y="40" width="168.0" height="44.0" rx="8.0" fill="#0B1020" opacity="1.0" stroke="#FFB000" stroke-width="1.5"/><text x="994.0" y="68.0" fill="#8C97B8" font-size="12.0" font-weight="700" font-family="JetBrains Mono, Menlo, monospace" text-anchor="start">DDL</text><text x="1136.0" y="68.0" fill="#FFB000" font-size="17.0" font-weight="800" font-family="JetBrains Mono, Menlo, monospace" text-anchor="end">T-05:12</text></svg>