<svg xmlns="http://www.w3.org/2000/svg" width="1280" height="720" viewBox="0 0 1280 720">
<rect x="0" y="0" width="1280" height="720" rx="0" fill="#12182E" opacity="1.0"/>
<rect x="60" y="56" width="1160" height="608" rx="16" fill="#171F38" opacity="0.5" stroke="#2A3552" stroke-width="2"/>
<text x="640" y="98" fill="#E4E9F7" font-size="22" font-weight="800" font-family="JetBrains Mono, Menlo, monospace" text-anchor="middle">HONEST RE-EVAL — the gap collapses</text>
<text x="640" y="122" fill="#8C97B8" font-size="13" font-weight="400" font-family="JetBrains Mono, Menlo, monospace" text-anchor="middle">re-score with raw json.loads + jsonschema (no sanitizer)</text>
<rect x="120" y="210" width="420" height="300" rx="14" fill="#1A1330" opacity="1.0" stroke="#FFB000" stroke-width="2"/>
<text x="330" y="250" fill="#8C97B8" font-size="13" font-weight="700" font-family="JetBrains Mono, Menlo, monospace" text-anchor="middle">reported (sanitized)</text>
<text x="330" y="360" fill="#FFB000" font-size="86" font-weight="800" font-family="JetBrains Mono, Menlo, monospace" text-anchor="middle">+6.2</text>
<path d="M250,300 L300,360 L270,400 L340,470" stroke="#FF3366" stroke-width="3" fill="none" opacity="0.8"/>
<path d="M400,290 L360,360 L420,420" stroke="#FF3366" stroke-width="3" fill="none" opacity="0.8"/>
<text x="330" y="455" fill="#FF3366" font-size="14" font-weight="700" font-family="JetBrains Mono, Menlo, monospace" text-anchor="middle">INFLATED</text>
<rect x="560" y="330" width="150" height="60" rx="10" fill="#0E1A20" opacity="1.0" stroke="#00C896" stroke-width="1.5"/>
<text x="635" y="355" fill="#00C896" font-size="13" font-weight="700" font-family="JetBrains Mono, Menlo, monospace" text-anchor="middle">flip RAW</text>
<text x="635" y="376" fill="#00C896" font-size="13" font-weight="700" font-family="JetBrains Mono, Menlo, monospace" text-anchor="middle">switch</text>
<path d="M548,360 L556,360 M716,360 L744,360" stroke="#E4E9F7" stroke-width="2.5"/>
<path d="M744,360 L734,353 L734,367 Z" fill="#E4E9F7"/>
<rect x="760" y="210" width="400" height="300" rx="14" fill="#0E2A22" opacity="1.0" stroke="#00C896" stroke-width="2.5"/>
<text x="960" y="250" fill="#8C97B8" font-size="13" font-weight="700" font-family="JetBrains Mono, Menlo, monospace" text-anchor="middle">true effect (raw)</text>
<text x="960" y="360" fill="#00C896" font-size="86" font-weight="800" font-family="JetBrains Mono, Menlo, monospace" text-anchor="middle">+1.4</text>
<text x="960" y="455" fill="#00C896" font-size="14" font-weight="700" font-family="JetBrains Mono, Menlo, monospace" text-anchor="middle">REAL · not killed</text>
<path d="M540,470 C620,560 760,560 820,520" stroke="#8C97B8" stroke-width="2" stroke-dasharray="5 5" fill="none"/>
<rect x="560" y="540" width="300" height="54" rx="10" fill="#241019" opacity="1.0" stroke="#FF3366" stroke-width="1.5"/>
<text x="710" y="565" fill="#FF3366" font-size="13.5" font-weight="700" font-family="JetBrains Mono, Menlo, monospace" text-anchor="middle">+4.8 = evaluator self-repair artifact</text>
<text x="710" y="584" fill="#8C97B8" font-size="11" font-weight="400" font-family="JetBrains Mono, Menlo, monospace" text-anchor="middle">(the sanitizer was scoring repaired output)</text>
<text x="640" y="640" fill="#E4E9F7" font-size="14" font-weight="700" font-family="JetBrains Mono, Menlo, monospace" text-anchor="middle">effect REAL but scope narrowed  →  WARN_corrected, 诚实但不杀稿</text>
</svg>