<svg xmlns="http://www.w3.org/2000/svg" width="1280" height="720" viewBox="0 0 1280 720"><rect x="0" y="0" width="1280" height="720" rx="0" fill="#0A0E27" opacity="1.0"/><line x1="128" y1="518" x2="256" y2="418" stroke="#E4E9F7" stroke-width="1.4" opacity="0.18"/><line x1="256" y1="418" x2="422" y2="331" stroke="#E4E9F7" stroke-width="1.4" opacity="0.18"/><line x1="422" y1="331" x2="576" y2="432" stroke="#E4E9F7" stroke-width="1.4" opacity="0.18"/><line x1="576" y1="432" x2="730" y2="302" stroke="#E4E9F7" stroke-width="1.4" opacity="0.18"/><line x1="730" y1="302" x2="858" y2="396" stroke="#E4E9F7" stroke-width="1.4" opacity="0.18"/><line x1="858" y1="396" x2="998" y2="274" stroke="#E4E9F7" stroke-width="1.4" opacity="0.18"/><line x1="998" y1="274" x2="1126" y2="144" stroke="#E4E9F7" stroke-width="1.4" opacity="0.18"/><line x1="128" y1="518" x2="77" y2="360" stroke="#FF3366" stroke-width="1.4" opacity="0.18"/><line x1="128" y1="518" x2="179" y2="274" stroke="#FF3366" stroke-width="1.4" opacity="0.18"/><line x1="730" y1="302" x2="640" y2="187" stroke="#FF3366" stroke-width="1.4" opacity="0.18"/><line x1="640" y1="187" x2="512" y2="130" stroke="#FF3366" stroke-width="1.4" opacity="0.18"/><circle cx="128" cy="518" r="14.0" fill="#E4E9F7" opacity="0.13"/><circle cx="128" cy="518" r="5.5" fill="#E4E9F7" opacity="0.95"/><circle cx="256" cy="418" r="11.2" fill="#E4E9F7" opacity="0.13"/><circle cx="256" cy="418" r="4.4" fill="#E4E9F7" opacity="0.95"/><circle cx="422" cy="331" r="14.0" fill="#E4E9F7" opacity="0.13"/><circle cx="422" cy="331" r="5.5" fill="#E4E9F7" opacity="0.95"/><circle cx="576" cy="432" r="15.4" fill="#FF3366" opacity="0.13"/><circle cx="576" cy="432" r="6.1" fill="#FF3366" opacity="0.95"/><circle cx="730" cy="302" r="16.8" fill="#FFB000" opacity="0.13"/><circle cx="730" cy="302" r="6.6" fill="#FFB000" opacity="0.95"/><circle cx="858" cy="396" r="15.4" fill="#FFB000" opacity="0.13"/><circle cx="858" cy="396" r="6.1" fill="#FFB000" opacity="0.95"/><circle cx="998" cy="274" r="15.4" fill="#00C896" opacity="0.13"/><circle cx="998" cy="274" r="6.1" fill="#00C896" opacity="0.95"/><circle cx="1126" cy="144" r="22.4" fill="#FFFFFF" opacity="0.13"/><circle cx="1126" cy="144" r="8.8" fill="#FFFFFF" opacity="0.95"/><circle cx="77" cy="360" r="4.2" fill="#FF3366" opacity="0.13"/><circle cx="77" cy="360" r="1.6" fill="#FF3366" opacity="0.95"/><circle cx="179" cy="274" r="3.8" fill="#FF3366" opacity="0.13"/><circle cx="179" cy="274" r="1.5" fill="#FF3366" opacity="0.95"/><circle cx="640" cy="187" r="5.0" fill="#FF3366" opacity="0.13"/><circle cx="640" cy="187" r="2.0" fill="#FF3366" opacity="0.95"/><circle cx="512" cy="130" r="4.2" fill="#FF3366" opacity="0.13"/><circle cx="512" cy="130" r="1.6" fill="#FF3366" opacity="0.95"/><line x1="1126" y1="144" x2="1075" y2="670" stroke="#FFB46B" stroke-width="1.2" opacity="0.5"/><rect x="1066.2" y="662.6" width="18" height="14" rx="2" fill="#FFB46B" opacity="1.0"/><rect x="1045.2" y="676.6" width="60" height="5" rx="1" fill="#10131F" opacity="1.0"/></svg>