<svg xmlns="http://www.w3.org/2000/svg" width="1100" height="620" viewBox="0 0 1100 620"><rect x="0" y="0" width="1100" height="620" rx="0" fill="#0A0E27" opacity="1.0"/><text x="550.0" y="44" fill="#E4E9F7" font-size="20" font-weight="800" font-family="JetBrains Mono, Menlo, monospace" text-anchor="middle" letter-spacing="3">GPU LAUNCH CONSOLE</text><rect x="50" y="70" width="470" height="56" rx="9" fill="#0B1020" opacity="1.0" stroke="#2A3552" stroke-width="1.5"/><text x="70" y="104" fill="#00C896" font-size="13.5" font-weight="700" font-family="JetBrains Mono, Menlo, monospace" text-anchor="start">$ aris exp launch dllm-schema-keyword-first --gpus 8</text><rect x="150" y="170" width="180" height="130" rx="12" fill="#10162B" opacity="1.0" stroke="#00C896" stroke-width="1.6"/><rect x="166" y="188" width="148" height="56" rx="7" fill="#0B1020" opacity="1.0" stroke="#2A3552" stroke-width="1"/><rect x="174" y="198" width="26" height="36" rx="3" fill="#16203A" opacity="1.0"/><rect x="209" y="198" width="26" height="36" rx="3" fill="#16203A" opacity="1.0"/><rect x="244" y="198" width="26" height="36" rx="3" fill="#16203A" opacity="1.0"/><rect x="279" y="198" width="26" height="36" rx="3" fill="#16203A" opacity="1.0"/><circle cx="176" cy="272" r="7" fill="#00C896"/><text x="250" y="278" fill="#8C97B8" font-size="13" font-weight="700" font-family="JetBrains Mono, Menlo, monospace" text-anchor="middle">gpu0</text><rect x="360" y="170" width="180" height="130" rx="12" fill="#10162B" opacity="1.0" stroke="#00C896" stroke-width="1.6"/><rect x="376" y="188" width="148" height="56" rx="7" fill="#0B1020" opacity="1.0" stroke="#2A3552" stroke-width="1"/><rect x="384" y="198" width="26" height="36" rx="3" fill="#16203A" opacity="1.0"/><rect x="419" y="198" width="26" height="36" rx="3" fill="#16203A" opacity="1.0"/><rect x="454" y="198" width="26" height="36" rx="3" fill="#16203A" opacity="1.0"/><rect x="489" y="198" width="26" height="36" rx="3" fill="#16203A" opacity="1.0"/><circle cx="386" cy="272" r="7" fill="#00C896"/><text x="460" y="278" fill="#8C97B8" font-size="13" font-weight="700" font-family="JetBrains Mono, Menlo, monospace" text-anchor="middle">gpu1</text><rect x="570" y="170" width="180" height="130" rx="12" fill="#10162B" opacity="1.0" stroke="#00C896" stroke-width="1.6"/><rect x="586" y="188" width="148" height="56" rx="7" fill="#0B1020" opacity="1.0" stroke="#2A3552" stroke-width="1"/><rect x="594" y="198" width="26" height="36" rx="3" fill="#16203A" opacity="1.0"/><rect x="629" y="198" width="26" height="36" rx="3" fill="#16203A" opacity="1.0"/><rect x="664" y="198" width="26" height="36" rx="3" fill="#16203A" opacity="1.0"/><rect x="699" y="198" width="26" height="36" rx="3" fill="#16203A" opacity="1.0"/><circle cx="596" cy="272" r="7" fill="#00C896"/><text x="670" y="278" fill="#8C97B8" font-size="13" font-weight="700" font-family="JetBrains Mono, Menlo, monospace" text-anchor="middle">gpu2</text><rect x="780" y="170" width="180" height="130" rx="12" fill="#10162B" opacity="1.0" stroke="#00C896" stroke-width="1.6"/><rect x="796" y="188" width="148" height="56" rx="7" fill="#0B1020" opacity="1.0" stroke="#2A3552" stroke-width="1"/><rect x="804" y="198" width="26" height="36" rx="3" fill="#16203A" opacity="1.0"/><rect x="839" y="198" width="26" height="36" rx="3" fill="#16203A" opacity="1.0"/><rect x="874" y="198" width="26" height="36" rx="3" fill="#16203A" opacity="1.0"/><rect x="909" y="198" width="26" height="36" rx="3" fill="#16203A" opacity="1.0"/><circle cx="806" cy="272" r="7" fill="#00C896"/><text x="880" y="278" fill="#8C97B8" font-size="13" font-weight="700" font-family="JetBrains Mono, Menlo, monospace" text-anchor="middle">gpu3</text><rect x="150" y="340" width="180" height="130" rx="12" fill="#10162B" opacity="1.0" stroke="#00C896" stroke-width="1.6"/><rect x="166" y="358" width="148" height="56" rx="7" fill="#0B1020" opacity="1.0" stroke="#2A3552" stroke-width="1"/><rect x="174" y="368" width="26" height="36" rx="3" fill="#16203A" opacity="1.0"/><rect x="209" y="368" width="26" height="36" rx="3" fill="#16203A" opacity="1.0"/><rect x="244" y="368" width="26" height="36" rx="3" fill="#16203A" opacity="1.0"/><rect x="279" y="368" width="26" height="36" rx="3" fill="#16203A" opacity="1.0"/><circle cx="176" cy="442" r="7" fill="#00C896"/><text x="250" y="448" fill="#8C97B8" font-size="13" font-weight="700" font-family="JetBrains Mono, Menlo, monospace" text-anchor="middle">gpu4</text><rect x="360" y="340" width="180" height="130" rx="12" fill="#10162B" opacity="1.0" stroke="#00C896" stroke-width="1.6"/><rect x="376" y="358" width="148" height="56" rx="7" fill="#0B1020" opacity="1.0" stroke="#2A3552" stroke-width="1"/><rect x="384" y="368" width="26" height="36" rx="3" fill="#16203A" opacity="1.0"/><rect x="419" y="368" width="26" height="36" rx="3" fill="#16203A" opacity="1.0"/><rect x="454" y="368" width="26" height="36" rx="3" fill="#16203A" opacity="1.0"/><rect x="489" y="368" width="26" height="36" rx="3" fill="#16203A" opacity="1.0"/><circle cx="386" cy="442" r="7" fill="#00C896"/><text x="460" y="448" fill="#8C97B8" font-size="13" font-weight="700" font-family="JetBrains Mono, Menlo, monospace" text-anchor="middle">gpu5</text><rect x="570" y="340" width="180" height="130" rx="12" fill="#10162B" opacity="1.0" stroke="#00C896" stroke-width="1.6"/><rect x="586" y="358" width="148" height="56" rx="7" fill="#0B1020" opacity="1.0" stroke="#2A3552" stroke-width="1"/><rect x="594" y="368" width="26" height="36" rx="3" fill="#16203A" opacity="1.0"/><rect x="629" y="368" width="26" height="36" rx="3" fill="#16203A" opacity="1.0"/><rect x="664" y="368" width="26" height="36" rx="3" fill="#16203A" opacity="1.0"/><rect x="699" y="368" width="26" height="36" rx="3" fill="#16203A" opacity="1.0"/><circle cx="596" cy="442" r="7" fill="#00C896"/><text x="670" y="448" fill="#8C97B8" font-size="13" font-weight="700" font-family="JetBrains Mono, Menlo, monospace" text-anchor="middle">gpu6</text><rect x="780" y="340" width="180" height="130" rx="12" fill="#10162B" opacity="1.0" stroke="#00C896" stroke-width="1.6"/><rect x="796" y="358" width="148" height="56" rx="7" fill="#0B1020" opacity="1.0" stroke="#2A3552" stroke-width="1"/><rect x="804" y="368" width="26" height="36" rx="3" fill="#16203A" opacity="1.0"/><rect x="839" y="368" width="26" height="36" rx="3" fill="#16203A" opacity="1.0"/><rect x="874" y="368" width="26" height="36" rx="3" fill="#16203A" opacity="1.0"/><rect x="909" y="368" width="26" height="36" rx="3" fill="#16203A" opacity="1.0"/><circle cx="806" cy="442" r="7" fill="#00C896"/><text x="880" y="448" fill="#8C97B8" font-size="13" font-weight="700" font-family="JetBrains Mono, Menlo, monospace" text-anchor="middle">gpu7</text><rect x="390.0" y="510" width="130" height="56" rx="10" fill="#0B1020" opacity="1.0" stroke="#00C896" stroke-width="2"/><text x="455.0" y="548" fill="#00C896" font-size="32" font-weight="800" font-family="JetBrains Mono, Menlo, monospace" text-anchor="middle">8/8</text><rect x="556.0" y="512" width="196" height="52" rx="10" fill="#0E2A22" opacity="1.0" stroke="#00C896" stroke-width="2.6"/><text x="654.0" y="547" fill="#00C896" font-size="27" font-weight="800" font-family="JetBrains Mono, Menlo, monospace" text-anchor="middle">RUNNING</text><rect x="870" y="80" width="201.6" height="52.8" rx="9.6" fill="#0B1020" opacity="1.0" stroke="#FFB000" stroke-width="1.5"/><text x="886.8" y="113.6" fill="#8C97B8" font-size="14.399999999999999" font-weight="700" font-family="JetBrains Mono, Menlo, monospace" text-anchor="start">DDL</text><text x="1057.1999999999998" y="113.6" fill="#FFB000" font-size="20.4" font-weight="800" font-family="JetBrains Mono, Menlo, monospace" text-anchor="end">T-18:30</text></svg>