<svg xmlns="http://www.w3.org/2000/svg" width="1100" height="620" viewBox="0 0 1100 620"><rect x="0" y="0" width="1100" height="620" rx="0" fill="#0A0E27" opacity="1.0"/><g transform="translate(135,559) rotate(-52.7)" opacity="0.82"><rect x="-75.0" y="-48.0" width="150" height="96" rx="10" fill="#1B2440" opacity="1.0" stroke="#2A3552" stroke-width="1.2"/><rect x="-61.0" y="-18" width="122" height="10" rx="4" fill="#2A3552" opacity="0.8"/><rect x="-61.0" y="2" width="75.0" height="8" rx="4" fill="#222B45" opacity="0.7"/></g><g transform="translate(163,514) rotate(-47.2)" opacity="0.82"><rect x="-75.0" y="-48.0" width="150" height="96" rx="10" fill="#15263A" opacity="1.0" stroke="#2A3552" stroke-width="1.2"/><rect x="-61.0" y="-18" width="122" height="10" rx="4" fill="#2A3552" opacity="0.8"/><rect x="-61.0" y="2" width="75.0" height="8" rx="4" fill="#222B45" opacity="0.7"/></g><g transform="translate(196,471) rotate(-41.6)" opacity="0.82"><rect x="-75.0" y="-48.0" width="150" height="96" rx="10" fill="#1A1F3D" opacity="1.0" stroke="#2A3552" stroke-width="1.2"/><rect x="-61.0" y="-18" width="122" height="10" rx="4" fill="#2A3552" opacity="0.8"/><rect x="-61.0" y="2" width="75.0" height="8" rx="4" fill="#222B45" opacity="0.7"/></g><g transform="translate(233,433) rotate(-36.1)" opacity="0.82"><rect x="-75.0" y="-48.0" width="150" height="96" rx="10" fill="#142433" opacity="1.0" stroke="#2A3552" stroke-width="1.2"/><rect x="-61.0" y="-18" width="122" height="10" rx="4" fill="#2A3552" opacity="0.8"/><rect x="-61.0" y="2" width="75.0" height="8" rx="4" fill="#222B45" opacity="0.7"/></g><g transform="translate(274,399) rotate(-30.5)" opacity="0.82"><rect x="-75.0" y="-48.0" width="150" height="96" rx="10" fill="#1D1B38" opacity="1.0" stroke="#2A3552" stroke-width="1.2"/><rect x="-61.0" y="-18" width="122" height="10" rx="4" fill="#2A3552" opacity="0.8"/><rect x="-61.0" y="2" width="75.0" height="8" rx="4" fill="#222B45" opacity="0.7"/></g><g transform="translate(320,370) rotate(-25.0)" opacity="0.82"><rect x="-75.0" y="-48.0" width="150" height="96" rx="10" fill="#1B2440" opacity="1.0" stroke="#2A3552" stroke-width="1.2"/><rect x="-61.0" y="-18" width="122" height="10" rx="4" fill="#2A3552" opacity="0.8"/><rect x="-61.0" y="2" width="75.0" height="8" rx="4" fill="#222B45" opacity="0.7"/></g><g transform="translate(368,347) rotate(-19.4)" opacity="0.82"><rect x="-75.0" y="-48.0" width="150" height="96" rx="10" fill="#15263A" opacity="1.0" stroke="#2A3552" stroke-width="1.2"/><rect x="-61.0" y="-18" width="122" height="10" rx="4" fill="#2A3552" opacity="0.8"/><rect x="-61.0" y="2" width="75.0" height="8" rx="4" fill="#222B45" opacity="0.7"/></g><g transform="translate(418,329) rotate(-13.9)" opacity="0.82"><rect x="-75.0" y="-48.0" width="150" height="96" rx="10" fill="#1A1F3D" opacity="1.0" stroke="#2A3552" stroke-width="1.2"/><rect x="-61.0" y="-18" width="122" height="10" rx="4" fill="#2A3552" opacity="0.8"/><rect x="-61.0" y="2" width="75.0" height="8" rx="4" fill="#222B45" opacity="0.7"/></g><g transform="translate(470,317) rotate(-8.3)" opacity="0.82"><rect x="-75.0" y="-48.0" width="150" height="96" rx="10" fill="#142433" opacity="1.0" stroke="#2A3552" stroke-width="1.2"/><rect x="-61.0" y="-18" width="122" height="10" rx="4" fill="#2A3552" opacity="0.8"/><rect x="-61.0" y="2" width="75.0" height="8" rx="4" fill="#222B45" opacity="0.7"/></g><g transform="translate(577,311) rotate(2.8)" opacity="0.82"><rect x="-75.0" y="-48.0" width="150" height="96" rx="10" fill="#1B2440" opacity="1.0" stroke="#2A3552" stroke-width="1.2"/><rect x="-61.0" y="-18" width="122" height="10" rx="4" fill="#2A3552" opacity="0.8"/><rect x="-61.0" y="2" width="75.0" height="8" rx="4" fill="#222B45" opacity="0.7"/></g><g transform="translate(630,317) rotate(8.3)" opacity="0.82"><rect x="-75.0" y="-48.0" width="150" height="96" rx="10" fill="#15263A" opacity="1.0" stroke="#2A3552" stroke-width="1.2"/><rect x="-61.0" y="-18" width="122" height="10" rx="4" fill="#2A3552" opacity="0.8"/><rect x="-61.0" y="2" width="75.0" height="8" rx="4" fill="#222B45" opacity="0.7"/></g><g transform="translate(682,329) rotate(13.9)" opacity="0.82"><rect x="-75.0" y="-48.0" width="150" height="96" rx="10" fill="#1A1F3D" opacity="1.0" stroke="#2A3552" stroke-width="1.2"/><rect x="-61.0" y="-18" width="122" height="10" rx="4" fill="#2A3552" opacity="0.8"/><rect x="-61.0" y="2" width="75.0" height="8" rx="4" fill="#222B45" opacity="0.7"/></g><g transform="translate(732,347) rotate(19.4)" opacity="0.82"><rect x="-75.0" y="-48.0" width="150" height="96" rx="10" fill="#142433" opacity="1.0" stroke="#2A3552" stroke-width="1.2"/><rect x="-61.0" y="-18" width="122" height="10" rx="4" fill="#2A3552" opacity="0.8"/><rect x="-61.0" y="2" width="75.0" height="8" rx="4" fill="#222B45" opacity="0.7"/></g><g transform="translate(780,370) rotate(25.0)" opacity="0.82"><rect x="-75.0" y="-48.0" width="150" height="96" rx="10" fill="#1D1B38" opacity="1.0" stroke="#2A3552" stroke-width="1.2"/><rect x="-61.0" y="-18" width="122" height="10" rx="4" fill="#2A3552" opacity="0.8"/><rect x="-61.0" y="2" width="75.0" height="8" rx="4" fill="#222B45" opacity="0.7"/></g><g transform="translate(826,399) rotate(30.5)" opacity="0.82"><rect x="-75.0" y="-48.0" width="150" height="96" rx="10" fill="#1B2440" opacity="1.0" stroke="#2A3552" stroke-width="1.2"/><rect x="-61.0" y="-18" width="122" height="10" rx="4" fill="#2A3552" opacity="0.8"/><rect x="-61.0" y="2" width="75.0" height="8" rx="4" fill="#222B45" opacity="0.7"/></g><g transform="translate(867,433) rotate(36.1)" opacity="0.82"><rect x="-75.0" y="-48.0" width="150" height="96" rx="10" fill="#15263A" opacity="1.0" stroke="#2A3552" stroke-width="1.2"/><rect x="-61.0" y="-18" width="122" height="10" rx="4" fill="#2A3552" opacity="0.8"/><rect x="-61.0" y="2" width="75.0" height="8" rx="4" fill="#222B45" opacity="0.7"/></g><g transform="translate(904,471) rotate(41.6)" opacity="0.82"><rect x="-75.0" y="-48.0" width="150" height="96" rx="10" fill="#1A1F3D" opacity="1.0" stroke="#2A3552" stroke-width="1.2"/><rect x="-61.0" y="-18" width="122" height="10" rx="4" fill="#2A3552" opacity="0.8"/><rect x="-61.0" y="2" width="75.0" height="8" rx="4" fill="#222B45" opacity="0.7"/></g><g transform="translate(937,514) rotate(47.2)" opacity="0.82"><rect x="-75.0" y="-48.0" width="150" height="96" rx="10" fill="#142433" opacity="1.0" stroke="#2A3552" stroke-width="1.2"/><rect x="-61.0" y="-18" width="122" height="10" rx="4" fill="#2A3552" opacity="0.8"/><rect x="-61.0" y="2" width="75.0" height="8" rx="4" fill="#222B45" opacity="0.7"/></g><g transform="translate(965,559) rotate(52.7)" opacity="0.82"><rect x="-75.0" y="-48.0" width="150" height="96" rx="10" fill="#1D1B38" opacity="1.0" stroke="#2A3552" stroke-width="1.2"/><rect x="-61.0" y="-18" width="122" height="10" rx="4" fill="#2A3552" opacity="0.8"/><rect x="-61.0" y="2" width="75.0" height="8" rx="4" fill="#222B45" opacity="0.7"/></g><g transform="translate(523,311) rotate(-2.8)" opacity="1.0"><rect x="-94.0" y="-58.0" width="188" height="116" rx="10" fill="#0E2A22" opacity="1.0" stroke="#00C896" stroke-width="2.4"/><text x="0" y="-12" fill="#00C896" font-size="26" font-weight="800" font-family="JetBrains Mono, Menlo, monospace" text-anchor="middle">#01</text><text x="0" y="22" fill="#E4E9F7" font-size="21" font-weight="800" font-family="JetBrains Mono, Menlo, monospace" text-anchor="middle">schema-first</text></g><circle cx="550.0" cy="594" r="40" fill="#B066FF" opacity="0.16"/><rect x="516.0" y="576" width="68" height="30" rx="8" fill="#10162B" opacity="1.0" stroke="#B066FF" stroke-width="1.6"/><rect x="430.0" y="26" width="240" height="64" rx="14" fill="#1A1330" opacity="1.0" stroke="#FFB000" stroke-width="2.5"/><text x="550.0" y="70" fill="#FFB000" font-size="34" font-weight="800" font-family="JetBrains Mono, Menlo, monospace" text-anchor="middle">20 IDEAS</text><rect x="870" y="544" width="184.8" height="48.400000000000006" rx="8.8" fill="#0B1020" opacity="1.0" stroke="#FFB000" stroke-width="1.5"/><text x="885.4" y="574.8" fill="#8C97B8" font-size="13.200000000000001" font-weight="700" font-family="JetBrains Mono, Menlo, monospace" text-anchor="start">DDL</text><text x="1041.6" y="574.8" fill="#FFB000" font-size="18.700000000000003" font-weight="800" font-family="JetBrains Mono, Menlo, monospace" text-anchor="end">T-19:42</text></svg>