<svg xmlns="http://www.w3.org/2000/svg" width="1280" height="300" viewBox="0 0 1280 300"><rect x="0" y="0" width="1280" height="300" rx="0" fill="#0A0E27" opacity="1.0"/><text x="640" y="40" fill="#E4E9F7" font-size="17" font-weight="700" font-family="JetBrains Mono, Menlo, monospace" text-anchor="middle">mug_states_ref_v1 — HER 'ML RESEARCH' motif cup (the </> mug is env, NOT this)</text><rect x="200" y="130" width="117.6" height="103.6" rx="12.6" fill="#5A6B85" opacity="1.0" stroke="#3D4A60" stroke-width="2.8"/><rect x="317.6" y="149.6" width="28.0" height="47.599999999999994" rx="12.6" fill="none" opacity="1.0" stroke="#3D4A60" stroke-width="7.0"/><rect x="211.2" y="166.4" width="95.19999999999999" height="36.4" rx="5.6" fill="#E8EDF7" opacity="1.0"/><text x="258.8" y="183.2" fill="#243049" font-size="15.399999999999999" font-weight="800" font-family="JetBrains Mono, Menlo, monospace" text-anchor="middle">ML</text><text x="258.8" y="198.6" fill="#243049" font-size="11.899999999999999" font-weight="800" font-family="JetBrains Mono, Menlo, monospace" text-anchor="middle">RESEARCH</text><path d="M233.6,121.6 c 8.399999999999999,-14.0 -8.399999999999999,-25.2 2.8,-42.0" stroke="#E4E9F7" stroke-width="4.199999999999999" fill="none" opacity="0.65" stroke-linecap="round"/><path d="M278.4,121.6 c 8.399999999999999,-14.0 -8.399999999999999,-25.2 2.8,-42.0" stroke="#E4E9F7" stroke-width="4.199999999999999" fill="none" opacity="0.65" stroke-linecap="round"/><text x="260" y="260" fill="#8C97B8" font-size="12" font-weight="400" font-family="JetBrains Mono, Menlo, monospace" text-anchor="middle">HOT · two steady plumes (S01 origin · S02 same)</text><rect x="540" y="130" width="117.6" height="103.6" rx="12.6" fill="#5A6B85" opacity="1.0" stroke="#3D4A60" stroke-width="2.8"/><rect x="657.6" y="149.6" width="28.0" height="47.599999999999994" rx="12.6" fill="none" opacity="1.0" stroke="#3D4A60" stroke-width="7.0"/><rect x="551.2" y="166.4" width="95.19999999999999" height="36.4" rx="5.6" fill="#E8EDF7" opacity="1.0"/><text x="598.8" y="183.2" fill="#243049" font-size="15.399999999999999" font-weight="800" font-family="JetBrains Mono, Menlo, monospace" text-anchor="middle">ML</text><text x="598.8" y="198.6" fill="#243049" font-size="11.899999999999999" font-weight="800" font-family="JetBrains Mono, Menlo, monospace" text-anchor="middle">RESEARCH</text><path d="M596.0,121.6 c 5.6,-11.2 -5.6,-19.599999999999998 2.0999999999999996,-33.599999999999994" stroke="#E4E9F7" stroke-width="2.8" fill="none" opacity="0.32" stroke-linecap="round"/><text x="600" y="260" fill="#8C97B8" font-size="12" font-weight="400" font-family="JetBrains Mono, Menlo, monospace" text-anchor="middle">FADING · one thin wisp (S03 inset)</text><rect x="880" y="130" width="117.6" height="103.6" rx="12.6" fill="#5A6B85" opacity="1.0" stroke="#3D4A60" stroke-width="2.8"/><rect x="997.6" y="149.6" width="28.0" height="47.599999999999994" rx="12.6" fill="none" opacity="1.0" stroke="#3D4A60" stroke-width="7.0"/><rect x="891.2" y="166.4" width="95.19999999999999" height="36.4" rx="5.6" fill="#E8EDF7" opacity="1.0"/><text x="938.8" y="183.2" fill="#243049" font-size="15.399999999999999" font-weight="800" font-family="JetBrains Mono, Menlo, monospace" text-anchor="middle">ML</text><text x="938.8" y="198.6" fill="#243049" font-size="11.899999999999999" font-weight="800" font-family="JetBrains Mono, Menlo, monospace" text-anchor="middle">RESEARCH</text><rect x="889.8" y="135.6" width="98.0" height="9.799999999999999" rx="4.8999999999999995" fill="#C9CFBE" opacity="0.95"/><text x="940" y="260" fill="#8C97B8" font-size="12" font-weight="400" font-family="JetBrains Mono, Menlo, monospace" text-anchor="middle">COLD · no steam + milk film (S20 / S21 corner)</text></svg>