<svg xmlns="http://www.w3.org/2000/svg" width="1180" height="660" viewBox="0 0 1180 660"><rect x="0" y="0" width="1180" height="660" rx="0" fill="#0A0E27" opacity="1.0"/><rect x="470" y="70" width="60" height="470" rx="6" fill="#10162B" opacity="1.0" stroke="#FFB000" stroke-width="2"/><rect x="476" y="86" width="48" height="30" rx="3" fill="#151B33" opacity="0.85"/><rect x="476" y="126" width="48" height="30" rx="3" fill="#151B33" opacity="0.85"/><rect x="476" y="166" width="48" height="30" rx="3" fill="#1B2440" opacity="1.0" stroke="#2A3552" stroke-width="1"/><g transform="rotate(90 500 181)"><text x="500" y="185" fill="#8C97B8" font-size="9" font-weight="700" font-family="JetBrains Mono, Menlo, monospace" text-anchor="middle">PRIOR ART</text></g><rect x="476" y="206" width="48" height="30" rx="3" fill="#151B33" opacity="0.85"/><rect x="476" y="246" width="48" height="30" rx="3" fill="#151B33" opacity="0.85"/><rect x="476" y="286" width="48" height="30" rx="3" fill="#151B33" opacity="0.85"/><rect x="476" y="326" width="48" height="30" rx="3" fill="#151B33" opacity="0.85"/><rect x="476" y="366" width="48" height="30" rx="3" fill="#1B2440" opacity="1.0" stroke="#2A3552" stroke-width="1"/><g transform="rotate(90 500 381)"><text x="500" y="385" fill="#8C97B8" font-size="6.5" font-weight="700" font-family="JetBrains Mono, Menlo, monospace" text-anchor="middle">STRUCTURED OUTPUTS</text></g><rect x="476" y="406" width="48" height="30" rx="3" fill="#151B33" opacity="0.85"/><rect x="476" y="446" width="48" height="30" rx="3" fill="#151B33" opacity="0.85"/><rect x="476" y="486" width="48" height="30" rx="3" fill="#151B33" opacity="0.85"/><rect x="466" y="60" width="68" height="490" rx="8" fill="none" stroke="#FFB000" stroke-width="2" opacity="0.5"/><text x="500" y="46" fill="#FFB000" font-size="17" font-weight="800" font-family="JetBrains Mono, Menlo, monospace" text-anchor="middle">NOVELTY GATE</text><g transform="rotate(-8 175 184)"><rect x="120" y="150" width="110" height="68" rx="8" fill="#241019" opacity="0.8" stroke="#FF3366" stroke-width="1.2"/><rect x="134" y="168" width="80" height="8" rx="3" fill="#3A1B25" opacity="0.8"/><text x="208" y="208" fill="#FF3366" font-size="13" font-weight="800" font-family="JetBrains Mono, Menlo, monospace" text-anchor="middle">DUP</text></g><circle cx="140" cy="142" r="2.4" fill="#FF3366" opacity="0.8"/><g transform="rotate(5 265 234)"><rect x="210" y="200" width="110" height="68" rx="8" fill="#241019" opacity="0.8" stroke="#FF3366" stroke-width="1.2"/><rect x="224" y="218" width="80" height="8" rx="3" fill="#3A1B25" opacity="0.8"/><text x="298" y="258" fill="#FF3366" font-size="13" font-weight="800" font-family="JetBrains Mono, Menlo, monospace" text-anchor="middle">DUP</text></g><circle cx="237" cy="192" r="2.4" fill="#FF3366" opacity="0.8"/><g transform="rotate(10 145 324)"><rect x="90" y="290" width="110" height="68" rx="8" fill="#241019" opacity="0.8" stroke="#FF3366" stroke-width="1.2"/><rect x="104" y="308" width="80" height="8" rx="3" fill="#3A1B25" opacity="0.8"/><text x="178" y="348" fill="#FF3366" font-size="13" font-weight="800" font-family="JetBrains Mono, Menlo, monospace" text-anchor="middle">DUP</text></g><circle cx="124" cy="282" r="2.4" fill="#FF3366" opacity="0.8"/><g transform="rotate(-5 275 364)"><rect x="220" y="330" width="110" height="68" rx="8" fill="#241019" opacity="0.8" stroke="#FF3366" stroke-width="1.2"/><rect x="234" y="348" width="80" height="8" rx="3" fill="#3A1B25" opacity="0.8"/><text x="308" y="388" fill="#FF3366" font-size="13" font-weight="800" font-family="JetBrains Mono, Menlo, monospace" text-anchor="middle">DUP</text></g><circle cx="261" cy="322" r="2.4" fill="#FF3366" opacity="0.8"/><g transform="rotate(7 205 454)"><rect x="150" y="420" width="110" height="68" rx="8" fill="#241019" opacity="0.8" stroke="#FF3366" stroke-width="1.2"/><rect x="164" y="438" width="80" height="8" rx="3" fill="#3A1B25" opacity="0.8"/><text x="238" y="478" fill="#FF3366" font-size="13" font-weight="800" font-family="JetBrains Mono, Menlo, monospace" text-anchor="middle">DUP</text></g><circle cx="198" cy="412" r="2.4" fill="#FF3366" opacity="0.8"/><g transform="rotate(-6 270 520)"><rect x="180" y="462" width="190" height="116" rx="12" fill="#241019" opacity="1.0" stroke="#FF3366" stroke-width="2.5"/><rect x="202" y="488" width="130" height="10" rx="4" fill="#3A1B25" opacity="1.0"/><text x="275" y="520" fill="#8C97B8" font-size="12" font-weight="400" font-family="JetBrains Mono, Menlo, monospace" text-anchor="middle">arXiv 2024</text></g><g transform="rotate(-6 252.625 549.3)"><rect x="208" y="522" width="89.25" height="54.6" rx="10.5" fill="#241019" opacity="1.0" stroke="#FF3366" stroke-width="3.1500000000000004"/><text x="252.625" y="558.75" fill="#FF3366" font-size="27.3" font-weight="800" font-family="JetBrains Mono, Menlo, monospace" text-anchor="middle">DUP</text></g><rect x="600" y="140" width="88" height="56" rx="7" fill="#0E2A22" opacity="0.92" stroke="#00C896" stroke-width="1.3"/><rect x="612" y="156" width="60" height="7" rx="3" fill="#1E4435" opacity="1.0"/><rect x="612" y="172" width="40" height="6" rx="3" fill="#1A3A2E" opacity="1.0"/><circle cx="644" cy="202" r="14" fill="#00C896" opacity="0.06"/><rect x="705" y="140" width="88" height="56" rx="7" fill="#0E2A22" opacity="0.92" stroke="#00C896" stroke-width="1.3"/><rect x="717" y="156" width="60" height="7" rx="3" fill="#1E4435" opacity="1.0"/><rect x="717" y="172" width="40" height="6" rx="3" fill="#1A3A2E" opacity="1.0"/><circle cx="749" cy="202" r="14" fill="#00C896" opacity="0.06"/><rect x="810" y="140" width="88" height="56" rx="7" fill="#0E2A22" opacity="0.92" stroke="#00C896" stroke-width="1.3"/><rect x="822" y="156" width="60" height="7" rx="3" fill="#1E4435" opacity="1.0"/><rect x="822" y="172" width="40" height="6" rx="3" fill="#1A3A2E" opacity="1.0"/><circle cx="854" cy="202" r="14" fill="#00C896" opacity="0.06"/><rect x="915" y="140" width="88" height="56" rx="7" fill="#0E2A22" opacity="0.92" stroke="#00C896" stroke-width="1.3"/><rect x="927" y="156" width="60" height="7" rx="3" fill="#1E4435" opacity="1.0"/><rect x="927" y="172" width="40" height="6" rx="3" fill="#1A3A2E" opacity="1.0"/><circle cx="959" cy="202" r="14" fill="#00C896" opacity="0.06"/><rect x="1020" y="140" width="88" height="56" rx="7" fill="#0E2A22" opacity="0.92" stroke="#00C896" stroke-width="1.3"/><rect x="1032" y="156" width="60" height="7" rx="3" fill="#1E4435" opacity="1.0"/><rect x="1032" y="172" width="40" height="6" rx="3" fill="#1A3A2E" opacity="1.0"/><circle cx="1064" cy="202" r="14" fill="#00C896" opacity="0.06"/><rect x="600" y="270" width="88" height="56" rx="7" fill="#0E2A22" opacity="0.92" stroke="#00C896" stroke-width="1.3"/><rect x="612" y="286" width="60" height="7" rx="3" fill="#1E4435" opacity="1.0"/><rect x="612" y="302" width="40" height="6" rx="3" fill="#1A3A2E" opacity="1.0"/><circle cx="644" cy="332" r="14" fill="#00C896" opacity="0.06"/><rect x="705" y="270" width="88" height="56" rx="7" fill="#0E2A22" opacity="0.92" stroke="#00C896" stroke-width="1.3"/><rect x="717" y="286" width="60" height="7" rx="3" fill="#1E4435" opacity="1.0"/><rect x="717" y="302" width="40" height="6" rx="3" fill="#1A3A2E" opacity="1.0"/><circle cx="749" cy="332" r="14" fill="#00C896" opacity="0.06"/><rect x="810" y="270" width="88" height="56" rx="7" fill="#0E2A22" opacity="0.92" stroke="#00C896" stroke-width="1.3"/><rect x="822" y="286" width="60" height="7" rx="3" fill="#1E4435" opacity="1.0"/><rect x="822" y="302" width="40" height="6" rx="3" fill="#1A3A2E" opacity="1.0"/><circle cx="854" cy="332" r="14" fill="#00C896" opacity="0.06"/><rect x="915" y="270" width="88" height="56" rx="7" fill="#0E2A22" opacity="0.92" stroke="#00C896" stroke-width="1.3"/><rect x="927" y="286" width="60" height="7" rx="3" fill="#1E4435" opacity="1.0"/><rect x="927" y="302" width="40" height="6" rx="3" fill="#1A3A2E" opacity="1.0"/><circle cx="959" cy="332" r="14" fill="#00C896" opacity="0.06"/><rect x="1020" y="270" width="88" height="56" rx="7" fill="#0E2A22" opacity="0.92" stroke="#00C896" stroke-width="1.3"/><rect x="1032" y="286" width="60" height="7" rx="3" fill="#1E4435" opacity="1.0"/><rect x="1032" y="302" width="40" height="6" rx="3" fill="#1A3A2E" opacity="1.0"/><circle cx="1064" cy="332" r="14" fill="#00C896" opacity="0.06"/><rect x="600" y="400" width="88" height="56" rx="7" fill="#0E2A22" opacity="0.92" stroke="#00C896" stroke-width="1.3"/><rect x="612" y="416" width="60" height="7" rx="3" fill="#1E4435" opacity="1.0"/><rect x="612" y="432" width="40" height="6" rx="3" fill="#1A3A2E" opacity="1.0"/><circle cx="644" cy="462" r="14" fill="#00C896" opacity="0.06"/><rect x="705" y="400" width="88" height="56" rx="7" fill="#0E2A22" opacity="0.92" stroke="#00C896" stroke-width="1.3"/><rect x="717" y="416" width="60" height="7" rx="3" fill="#1E4435" opacity="1.0"/><rect x="717" y="432" width="40" height="6" rx="3" fill="#1A3A2E" opacity="1.0"/><circle cx="749" cy="462" r="14" fill="#00C896" opacity="0.06"/><rect x="810" y="400" width="88" height="56" rx="7" fill="#0E2A22" opacity="0.92" stroke="#00C896" stroke-width="1.3"/><rect x="822" y="416" width="60" height="7" rx="3" fill="#1E4435" opacity="1.0"/><rect x="822" y="432" width="40" height="6" rx="3" fill="#1A3A2E" opacity="1.0"/><circle cx="854" cy="462" r="14" fill="#00C896" opacity="0.06"/><rect x="915" y="400" width="88" height="56" rx="7" fill="#0E2A22" opacity="0.92" stroke="#00C896" stroke-width="1.3"/><rect x="927" y="416" width="60" height="7" rx="3" fill="#1E4435" opacity="1.0"/><rect x="927" y="432" width="40" height="6" rx="3" fill="#1A3A2E" opacity="1.0"/><circle cx="959" cy="462" r="14" fill="#00C896" opacity="0.06"/><rect x="700" y="470" width="200" height="78" rx="12" fill="#0B1020" opacity="1.0" stroke="#00C896" stroke-width="2.5"/><text x="800" y="522" fill="#00C896" font-size="40" font-weight="800" font-family="JetBrains Mono, Menlo, monospace" text-anchor="middle">14/20</text><g transform="rotate(4 1023.5 512.6)"><rect x="930" y="484" width="187.00000000000003" height="57.2" rx="11.0" fill="#0E2A22" opacity="1.0" stroke="#00C896" stroke-width="3.3000000000000003"/><text x="1023.5" y="522.5" fill="#00C896" font-size="28.6" font-weight="800" font-family="JetBrains Mono, Menlo, monospace" text-anchor="middle">SURVIVES</text></g><rect x="34" y="34" width="184.8" height="48.400000000000006" rx="8.8" fill="#0B1020" opacity="1.0" stroke="#FFB000" stroke-width="1.5"/><text x="49.400000000000006" y="64.80000000000001" fill="#8C97B8" font-size="13.200000000000001" font-weight="700" font-family="JetBrains Mono, Menlo, monospace" text-anchor="start">DDL</text><text x="205.60000000000002" y="64.80000000000001" fill="#FFB000" font-size="18.700000000000003" font-weight="800" font-family="JetBrains Mono, Menlo, monospace" text-anchor="end">T-18:55</text></svg>