<svg xmlns="http://www.w3.org/2000/svg" width="1180" height="660" viewBox="0 0 1180 660"><rect x="0" y="0" width="1180" height="660" rx="0" fill="#0A0E27" opacity="1.0"/><text x="590.0" y="44" fill="#E4E9F7" font-size="20" font-weight="800" font-family="JetBrains Mono, Menlo, monospace" text-anchor="middle" letter-spacing="3">PAPER — RESULTS</text><rect x="120" y="80" width="600" height="500" rx="8" fill="#F2EFE6" opacity="1.0" stroke="#C9C2AE" stroke-width="2"/><text x="420" y="124" fill="#2A2A33" font-size="22" font-weight="800" font-family="JetBrains Mono, Menlo, monospace" text-anchor="middle">Results</text><rect x="150" y="150" width="540" height="50" rx="6" fill="#1A1330" opacity="1.0" stroke="#FFB000" stroke-width="2"/><text x="420" y="182" fill="#FFB000" font-size="19" font-weight="800" font-family="JetBrains Mono, Menlo, monospace" text-anchor="middle">schema-keyword-first  +1.4 (scope-limited)</text><text x="660" y="232" fill="#B9B2A0" font-size="16" font-weight="700" font-family="JetBrains Mono, Menlo, monospace" text-anchor="middle">+6.2</text><line x1="630" y1="226" x2="692" y2="230" stroke="#FF3366" stroke-width="2" opacity="0.6"/><rect x="150" y="250" width="460" height="11" rx="4" fill="#D9D2BE" opacity="1.0"/><rect x="150" y="278" width="500" height="11" rx="4" fill="#D9D2BE" opacity="1.0"/><rect x="150" y="306" width="430" height="11" rx="4" fill="#D9D2BE" opacity="1.0"/><rect x="150" y="334" width="480" height="11" rx="4" fill="#D9D2BE" opacity="1.0"/><rect x="150" y="362" width="380" height="11" rx="4" fill="#D9D2BE" opacity="1.0"/><text x="150" y="432" fill="#2A2A33" font-size="15" font-weight="800" font-family="JetBrains Mono, Menlo, monospace" text-anchor="start">Limitations:</text><text x="150" y="458" fill="#6A6453" font-size="14" font-weight="400" font-family="JetBrains Mono, Menlo, monospace" text-anchor="start">holds under an external validator</text><rect x="150" y="478" width="420" height="10" rx="4" fill="#D9D2BE" opacity="1.0"/><rect x="150" y="502" width="360" height="10" rx="4" fill="#D9D2BE" opacity="1.0"/><rect x="770" y="150" width="360" height="200" rx="12" fill="#0B1020" opacity="1.0" stroke="#2A3552" stroke-width="2"/><text x="790" y="184" fill="#8C97B8" font-size="14" font-weight="400" font-family="JetBrains Mono, Menlo, monospace" text-anchor="start">$ validate results.json</text><rect x="800" y="210" width="245.0" height="50.0" rx="10.0" fill="#0E2A22" opacity="1.0" stroke="#00C896" stroke-width="2.0"/><text x="922.5" y="241.875" fill="#00C896" font-size="18.75" font-weight="700" font-family="JetBrains Mono, Menlo, monospace" text-anchor="middle">{"city":"Tokyo"} ✓</text><text x="950" y="300" fill="#00C896" font-size="15" font-weight="700" font-family="JetBrains Mono, Menlo, monospace" text-anchor="middle">✓ parsed · 2048/2048 clean</text><rect x="770" y="390" width="360" height="130" rx="10" fill="#0E1322" opacity="0.8" stroke="#2A3552" stroke-width="1.2"/><text x="790" y="422" fill="#8C97B8" font-size="13" font-weight="400" font-family="JetBrains Mono, Menlo, monospace" text-anchor="start">claim_id  = C7</text><text x="790" y="448" fill="#FFB000" font-size="13" font-weight="700" font-family="JetBrains Mono, Menlo, monospace" text-anchor="start">integrity = WARN_corrected</text><text x="790" y="474" fill="#00C896" font-size="13" font-weight="400" font-family="JetBrains Mono, Menlo, monospace" text-anchor="start">scope     = "external validator"</text><rect x="960" y="40" width="168.0" height="44.0" rx="8.0" fill="#0B1020" opacity="1.0" stroke="#FFB000" stroke-width="1.5"/><text x="974.0" y="68.0" fill="#8C97B8" font-size="12.0" font-weight="700" font-family="JetBrains Mono, Menlo, monospace" text-anchor="start">DDL</text><text x="1116.0" y="68.0" fill="#FFB000" font-size="17.0" font-weight="800" font-family="JetBrains Mono, Menlo, monospace" text-anchor="end">T-01:57</text></svg>