<svg xmlns="http://www.w3.org/2000/svg" width="1180" height="660" viewBox="0 0 1180 660"><rect x="0" y="0" width="1180" height="660" rx="0" fill="#0A0E27" opacity="1.0"/><circle cx="590.0" cy="330.0" r="260" fill="#FF3366" opacity="0.05"/><rect x="310.0" y="140.0" width="560.0" height="360.0" rx="16.0" fill="#0E1322" opacity="1.0" stroke="#2A3552" stroke-width="2.5"/><rect x="310.0" y="140.0" width="560.0" height="54.0" rx="16.0" fill="#10162B" opacity="1.0"/><text x="590.0" y="176.0" fill="#8C97B8" font-size="20.0" font-weight="800" font-family="JetBrains Mono, Menlo, monospace" text-anchor="middle">REVIEW · ROUND 1</text><text x="346.0" y="240.0" fill="#E4E9F7" font-size="22.0" font-weight="700" font-family="JetBrains Mono, Menlo, monospace" text-anchor="start">2048 samples scored</text><text x="346.0" y="280.0" fill="#8C97B8" font-size="16.0" font-weight="700" font-family="JetBrains Mono, Menlo, monospace" text-anchor="start">evaluator: exact_parse</text><text x="346.0" y="314.0" fill="#8C97B8" font-size="16.0" font-weight="700" font-family="JetBrains Mono, Menlo, monospace" text-anchor="start">evidence attached:</text><rect x="650.0" y="226.0" width="184.0" height="120.0" rx="12.0" fill="#241019" opacity="1.0" stroke="#FF3366" stroke-width="2.5"/><text x="742.0" y="302.0" fill="#FF3366" font-size="56.0" font-weight="800" font-family="JetBrains Mono, Menlo, monospace" text-anchor="middle">37</text><text x="742.0" y="332.0" fill="#8C97B8" font-size="13.0" font-weight="400" font-family="JetBrains Mono, Menlo, monospace" text-anchor="middle">malformed</text><g transform="rotate(-6 501.6 429.0)"><rect x="399.6" y="390.0" width="204.0" height="78.0" rx="15.0" fill="#241019" opacity="1.0" stroke="#FF3366" stroke-width="4.5"/><text x="501.6" y="442.5" fill="#FF3366" font-size="39.0" font-weight="800" font-family="JetBrains Mono, Menlo, monospace" text-anchor="middle">REJECT</text></g><rect x="350.0" y="346.0" width="121.52" height="24.8" rx="4.96" fill="#241019" opacity="1.0" stroke="#FF3366" stroke-width="0.992"/><text x="410.76" y="361.81" fill="#FF3366" font-size="9.3" font-weight="700" font-family="JetBrains Mono, Menlo, monospace" text-anchor="middle">{"city":"Tok|yo"}</text><path d="M418.0512,347.86 l -3.1,11.16 l 4.34,4.960000000000001 l -2.48,7.4399999999999995" stroke="#FF3366" stroke-width="0.992" fill="none" opacity="0.8"/><path d="M270.0,120.0 l 14,-6 m -14,6 l 6,14" stroke="#FF3366" stroke-width="3" opacity="0.7" fill="none"/><path d="M900.0,140.0 l 14,-6 m -14,6 l 6,14" stroke="#FF3366" stroke-width="3" opacity="0.7" fill="none"/><path d="M250.0,510.0 l 14,-6 m -14,6 l 6,14" stroke="#FF3366" stroke-width="3" opacity="0.7" fill="none"/><path d="M920.0,530.0 l 14,-6 m -14,6 l 6,14" stroke="#FF3366" stroke-width="3" opacity="0.7" fill="none"/><rect x="60" y="80" width="250" height="130" rx="9" fill="#0B1020" opacity="0.55" stroke="#2A3552" stroke-width="1"/><path d="M80,150 L290,158" stroke="#FF3366" stroke-width="2.5" opacity="0.5"/><text x="185" y="196" fill="#8C97B8" font-size="12" font-weight="400" font-family="JetBrains Mono, Menlo, monospace" text-anchor="middle">0.66 · flat</text><path d="M420,604 a 36,16 0 1 1 72,0" stroke="#2A3552" stroke-width="3" fill="none" opacity="0.7"/><path d="M492,604 l -8,-7 m 8,7 l -10,4" stroke="#2A3552" stroke-width="3" fill="none" opacity="0.7"/><rect x="924" y="40" width="243.6" height="63.8" rx="11.6" fill="#0B1020" opacity="1.0" stroke="#FFB000" stroke-width="1.5"/><text x="944.3" y="80.6" fill="#8C97B8" font-size="17.4" font-weight="700" font-family="JetBrains Mono, Menlo, monospace" text-anchor="start">DDL</text><text x="1150.1999999999998" y="80.6" fill="#FFB000" font-size="24.65" font-weight="800" font-family="JetBrains Mono, Menlo, monospace" text-anchor="end">T-16:05</text></svg>