<svg xmlns="http://www.w3.org/2000/svg" width="1280" height="760" viewBox="0 0 1280 760"><rect x="0" y="0" width="1280" height="760" rx="0" fill="#0A0E27" opacity="1.0"/><text x="640.0" y="40" fill="#E4E9F7" font-size="19" font-weight="800" font-family="JetBrains Mono, Menlo, monospace" text-anchor="middle" letter-spacing="4">RAW SAMPLE STREAM</text><rect x="60" y="60" width="760" height="88" rx="10" fill="#0B1020" opacity="1.0" stroke="#2A3552" stroke-width="1.5"/><path d="M80,122 L260,105 L440,94 L680,91" stroke="#00C896" stroke-width="3.5" fill="none"/><rect x="700" y="76" width="96" height="40" rx="7" fill="#0E2A22" opacity="1.0" stroke="#00C896" stroke-width="2"/><text x="748" y="104" fill="#00C896" font-size="26" font-weight="800" font-family="JetBrains Mono, Menlo, monospace" text-anchor="middle">0.71</text><rect x="860" y="66" width="230" height="60" rx="10" fill="#10162B" opacity="1.0" stroke="#FFB000" stroke-width="1.8"/><text x="975" y="106" fill="#FFB000" font-size="28" font-weight="800" font-family="JetBrains Mono, Menlo, monospace" text-anchor="middle">1024/2048</text><rect x="1096" y="70" width="168.0" height="44.0" rx="8.0" fill="#0B1020" opacity="1.0" stroke="#FFB000" stroke-width="1.5"/><text x="1110.0" y="98.0" fill="#8C97B8" font-size="12.0" font-weight="700" font-family="JetBrains Mono, Menlo, monospace" text-anchor="start">DDL</text><text x="1252.0" y="98.0" fill="#FFB000" font-size="17.0" font-weight="800" font-family="JetBrains Mono, Menlo, monospace" text-anchor="end">T-17:02</text><rect x="70" y="180" width="281" height="22" rx="4" fill="#10162B" opacity="0.9"/><rect x="78" y="186" width="211" height="9" rx="3" fill="#1B2440" opacity="0.9"/><rect x="305" y="184" width="38" height="15" rx="4" fill="#0E2A22" opacity="1.0"/><text x="324" y="195.5" fill="#00C896" font-size="9.5" font-weight="800" font-family="JetBrains Mono, Menlo, monospace" text-anchor="middle">OK</text><rect x="470" y="180" width="259" height="22" rx="4" fill="#10162B" opacity="0.9"/><rect x="478" y="186" width="189" height="9" rx="3" fill="#1B2440" opacity="0.9"/><rect x="683" y="184" width="38" height="15" rx="4" fill="#0E2A22" opacity="1.0"/><text x="702" y="195.5" fill="#00C896" font-size="9.5" font-weight="800" font-family="JetBrains Mono, Menlo, monospace" text-anchor="middle">OK</text><rect x="870" y="180" width="290" height="22" rx="4" fill="#10162B" opacity="0.9"/><rect x="878" y="186" width="220" height="9" rx="3" fill="#1B2440" opacity="0.9"/><rect x="1114" y="184" width="38" height="15" rx="4" fill="#0E2A22" opacity="1.0"/><text x="1133" y="195.5" fill="#00C896" font-size="9.5" font-weight="800" font-family="JetBrains Mono, Menlo, monospace" text-anchor="middle">OK</text><rect x="70" y="218" width="323" height="22" rx="4" fill="#10162B" opacity="0.9"/><rect x="78" y="224" width="253" height="9" rx="3" fill="#1B2440" opacity="0.9"/><rect x="347" y="222" width="38" height="15" rx="4" fill="#0E2A22" opacity="1.0"/><text x="366" y="233.5" fill="#00C896" font-size="9.5" font-weight="800" font-family="JetBrains Mono, Menlo, monospace" text-anchor="middle">OK</text><rect x="470" y="218" width="246" height="22" rx="4" fill="#10162B" opacity="0.9"/><rect x="478" y="224" width="176" height="9" rx="3" fill="#1B2440" opacity="0.9"/><rect x="670" y="222" width="38" height="15" rx="4" fill="#0E2A22" opacity="1.0"/><text x="689" y="233.5" fill="#00C896" font-size="9.5" font-weight="800" font-family="JetBrains Mono, Menlo, monospace" text-anchor="middle">OK</text><rect x="870" y="218" width="249" height="22" rx="4" fill="#10162B" opacity="0.9"/><rect x="878" y="224" width="179" height="9" rx="3" fill="#1B2440" opacity="0.9"/><rect x="1073" y="222" width="38" height="15" rx="4" fill="#0E2A22" opacity="1.0"/><text x="1092" y="233.5" fill="#00C896" font-size="9.5" font-weight="800" font-family="JetBrains Mono, Menlo, monospace" text-anchor="middle">OK</text><rect x="70" y="256" width="345" height="22" rx="4" fill="#10162B" opacity="0.9"/><rect x="78" y="262" width="275" height="9" rx="3" fill="#1B2440" opacity="0.9"/><rect x="369" y="260" width="38" height="15" rx="4" fill="#0E2A22" opacity="1.0"/><text x="388" y="271.5" fill="#00C896" font-size="9.5" font-weight="800" font-family="JetBrains Mono, Menlo, monospace" text-anchor="middle">OK</text><rect x="470" y="256" width="308" height="22" rx="4" fill="#10162B" opacity="0.9"/><rect x="478" y="262" width="238" height="9" rx="3" fill="#1B2440" opacity="0.9"/><rect x="732" y="260" width="38" height="15" rx="4" fill="#0E2A22" opacity="1.0"/><text x="751" y="271.5" fill="#00C896" font-size="9.5" font-weight="800" font-family="JetBrains Mono, Menlo, monospace" text-anchor="middle">OK</text><rect x="870" y="256" width="252" height="22" rx="4" fill="#10162B" opacity="0.9"/><rect x="878" y="262" width="182" height="9" rx="3" fill="#1B2440" opacity="0.9"/><rect x="1076" y="260" width="38" height="15" rx="4" fill="#0E2A22" opacity="1.0"/><text x="1095" y="271.5" fill="#00C896" font-size="9.5" font-weight="800" font-family="JetBrains Mono, Menlo, monospace" text-anchor="middle">OK</text><rect x="70" y="294" width="286" height="22" rx="4" fill="#10162B" opacity="0.9"/><rect x="78" y="300" width="216" height="9" rx="3" fill="#1B2440" opacity="0.9"/><rect x="310" y="298" width="38" height="15" rx="4" fill="#0E2A22" opacity="1.0"/><text x="329" y="309.5" fill="#00C896" font-size="9.5" font-weight="800" font-family="JetBrains Mono, Menlo, monospace" text-anchor="middle">OK</text><rect x="470" y="294" width="314" height="22" rx="4" fill="#10162B" opacity="0.9"/><rect x="478" y="300" width="244" height="9" rx="3" fill="#1B2440" opacity="0.9"/><rect x="738" y="298" width="38" height="15" rx="4" fill="#0E2A22" opacity="1.0"/><text x="757" y="309.5" fill="#00C896" font-size="9.5" font-weight="800" font-family="JetBrains Mono, Menlo, monospace" text-anchor="middle">OK</text><rect x="870" y="294" width="247" height="22" rx="4" fill="#10162B" opacity="0.9"/><rect x="878" y="300" width="177" height="9" rx="3" fill="#1B2440" opacity="0.9"/><rect x="1071" y="298" width="38" height="15" rx="4" fill="#0E2A22" opacity="1.0"/><text x="1090" y="309.5" fill="#00C896" font-size="9.5" font-weight="800" font-family="JetBrains Mono, Menlo, monospace" text-anchor="middle">OK</text><rect x="70" y="332" width="304" height="22" rx="4" fill="#10162B" opacity="0.9"/><rect x="78" y="338" width="234" height="9" rx="3" fill="#1B2440" opacity="0.9"/><rect x="328" y="336" width="38" height="15" rx="4" fill="#0E2A22" opacity="1.0"/><text x="347" y="347.5" fill="#00C896" font-size="9.5" font-weight="800" font-family="JetBrains Mono, Menlo, monospace" text-anchor="middle">OK</text><rect x="470" y="332" width="267" height="22" rx="4" fill="#10162B" opacity="0.9"/><rect x="478" y="338" width="197" height="9" rx="3" fill="#1B2440" opacity="0.9"/><rect x="691" y="336" width="38" height="15" rx="4" fill="#0E2A22" opacity="1.0"/><text x="710" y="347.5" fill="#00C896" font-size="9.5" font-weight="800" font-family="JetBrains Mono, Menlo, monospace" text-anchor="middle">OK</text><rect x="870" y="332" width="244" height="22" rx="4" fill="#10162B" opacity="0.9"/><rect x="878" y="338" width="174" height="9" rx="3" fill="#1B2440" opacity="0.9"/><rect x="1068" y="336" width="38" height="15" rx="4" fill="#0E2A22" opacity="1.0"/><text x="1087" y="347.5" fill="#00C896" font-size="9.5" font-weight="800" font-family="JetBrains Mono, Menlo, monospace" text-anchor="middle">OK</text><rect x="70" y="370" width="251" height="22" rx="4" fill="#10162B" opacity="0.9"/><rect x="78" y="376" width="181" height="9" rx="3" fill="#1B2440" opacity="0.9"/><rect x="275" y="374" width="38" height="15" rx="4" fill="#0E2A22" opacity="1.0"/><text x="294" y="385.5" fill="#00C896" font-size="9.5" font-weight="800" font-family="JetBrains Mono, Menlo, monospace" text-anchor="middle">OK</text><rect x="470" y="370" width="295" height="22" rx="4" fill="#10162B" opacity="0.9"/><rect x="478" y="376" width="225" height="9" rx="3" fill="#1B2440" opacity="0.9"/><rect x="719" y="374" width="38" height="15" rx="4" fill="#0E2A22" opacity="1.0"/><text x="738" y="385.5" fill="#00C896" font-size="9.5" font-weight="800" font-family="JetBrains Mono, Menlo, monospace" text-anchor="middle">OK</text><rect x="870" y="370" width="293" height="22" rx="4" fill="#10162B" opacity="0.9"/><rect x="878" y="376" width="223" height="9" rx="3" fill="#1B2440" opacity="0.9"/><rect x="1117" y="374" width="38" height="15" rx="4" fill="#0E2A22" opacity="1.0"/><text x="1136" y="385.5" fill="#00C896" font-size="9.5" font-weight="800" font-family="JetBrains Mono, Menlo, monospace" text-anchor="middle">OK</text><rect x="70" y="408" width="248" height="22" rx="4" fill="#10162B" opacity="0.9"/><rect x="78" y="414" width="178" height="9" rx="3" fill="#1B2440" opacity="0.9"/><rect x="272" y="412" width="38" height="15" rx="4" fill="#0E2A22" opacity="1.0"/><text x="291" y="423.5" fill="#00C896" font-size="9.5" font-weight="800" font-family="JetBrains Mono, Menlo, monospace" text-anchor="middle">OK</text><rect x="470" y="408" width="270" height="22" rx="4" fill="#10162B" opacity="0.9"/><rect x="478" y="414" width="200" height="9" rx="3" fill="#1B2440" opacity="0.9"/><rect x="694" y="412" width="38" height="15" rx="4" fill="#0E2A22" opacity="1.0"/><text x="713" y="423.5" fill="#00C896" font-size="9.5" font-weight="800" font-family="JetBrains Mono, Menlo, monospace" text-anchor="middle">OK</text><rect x="870" y="408" width="251" height="22" rx="4" fill="#10162B" opacity="0.9"/><rect x="878" y="414" width="181" height="9" rx="3" fill="#1B2440" opacity="0.9"/><rect x="1075" y="412" width="38" height="15" rx="4" fill="#0E2A22" opacity="1.0"/><text x="1094" y="423.5" fill="#00C896" font-size="9.5" font-weight="800" font-family="JetBrains Mono, Menlo, monospace" text-anchor="middle">OK</text><rect x="70" y="446" width="310" height="22" rx="4" fill="#10162B" opacity="0.9"/><rect x="78" y="452" width="240" height="9" rx="3" fill="#1B2440" opacity="0.9"/><rect x="334" y="450" width="38" height="15" rx="4" fill="#0E2A22" opacity="1.0"/><text x="353" y="461.5" fill="#00C896" font-size="9.5" font-weight="800" font-family="JetBrains Mono, Menlo, monospace" text-anchor="middle">OK</text><rect x="470" y="446" width="294" height="22" rx="4" fill="#10162B" opacity="0.9"/><rect x="478" y="452" width="224" height="9" rx="3" fill="#1B2440" opacity="0.9"/><rect x="718" y="450" width="38" height="15" rx="4" fill="#0E2A22" opacity="1.0"/><text x="737" y="461.5" fill="#00C896" font-size="9.5" font-weight="800" font-family="JetBrains Mono, Menlo, monospace" text-anchor="middle">OK</text><rect x="870" y="446" width="247" height="22" rx="4" fill="#10162B" opacity="0.9"/><rect x="878" y="452" width="177" height="9" rx="3" fill="#1B2440" opacity="0.9"/><rect x="1071" y="450" width="38" height="15" rx="4" fill="#0E2A22" opacity="1.0"/><text x="1090" y="461.5" fill="#00C896" font-size="9.5" font-weight="800" font-family="JetBrains Mono, Menlo, monospace" text-anchor="middle">OK</text><rect x="70" y="484" width="345" height="22" rx="4" fill="#10162B" opacity="0.9"/><rect x="78" y="490" width="275" height="9" rx="3" fill="#1B2440" opacity="0.9"/><rect x="369" y="488" width="38" height="15" rx="4" fill="#0E2A22" opacity="1.0"/><text x="388" y="499.5" fill="#00C896" font-size="9.5" font-weight="800" font-family="JetBrains Mono, Menlo, monospace" text-anchor="middle">OK</text><rect x="470" y="484" width="312" height="22" rx="4" fill="#10162B" opacity="0.9"/><rect x="478" y="490" width="242" height="9" rx="3" fill="#1B2440" opacity="0.9"/><rect x="736" y="488" width="38" height="15" rx="4" fill="#0E2A22" opacity="1.0"/><text x="755" y="499.5" fill="#00C896" font-size="9.5" font-weight="800" font-family="JetBrains Mono, Menlo, monospace" text-anchor="middle">OK</text><rect x="870" y="484" width="255" height="22" rx="4" fill="#10162B" opacity="0.9"/><rect x="878" y="490" width="185" height="9" rx="3" fill="#1B2440" opacity="0.9"/><rect x="1079" y="488" width="38" height="15" rx="4" fill="#0E2A22" opacity="1.0"/><text x="1098" y="499.5" fill="#00C896" font-size="9.5" font-weight="800" font-family="JetBrains Mono, Menlo, monospace" text-anchor="middle">OK</text><rect x="70" y="522" width="268" height="22" rx="4" fill="#10162B" opacity="0.9"/><rect x="78" y="528" width="198" height="9" rx="3" fill="#1B2440" opacity="0.9"/><rect x="292" y="526" width="38" height="15" rx="4" fill="#0E2A22" opacity="1.0"/><text x="311" y="537.5" fill="#00C896" font-size="9.5" font-weight="800" font-family="JetBrains Mono, Menlo, monospace" text-anchor="middle">OK</text><rect x="470" y="522" width="320" height="22" rx="4" fill="#10162B" opacity="0.9"/><rect x="478" y="528" width="250" height="9" rx="3" fill="#1B2440" opacity="0.9"/><rect x="744" y="526" width="38" height="15" rx="4" fill="#0E2A22" opacity="1.0"/><text x="763" y="537.5" fill="#00C896" font-size="9.5" font-weight="800" font-family="JetBrains Mono, Menlo, monospace" text-anchor="middle">OK</text><rect x="870" y="522" width="320" height="22" rx="4" fill="#10162B" opacity="0.9"/><rect x="878" y="528" width="250" height="9" rx="3" fill="#1B2440" opacity="0.9"/><rect x="1144" y="526" width="38" height="15" rx="4" fill="#0E2A22" opacity="1.0"/><text x="1163" y="537.5" fill="#00C896" font-size="9.5" font-weight="800" font-family="JetBrains Mono, Menlo, monospace" text-anchor="middle">OK</text><rect x="70" y="560" width="314" height="22" rx="4" fill="#10162B" opacity="0.9"/><rect x="78" y="566" width="244" height="9" rx="3" fill="#1B2440" opacity="0.9"/><rect x="338" y="564" width="38" height="15" rx="4" fill="#0E2A22" opacity="1.0"/><text x="357" y="575.5" fill="#00C896" font-size="9.5" font-weight="800" font-family="JetBrains Mono, Menlo, monospace" text-anchor="middle">OK</text><rect x="470" y="560" width="247" height="22" rx="4" fill="#10162B" opacity="0.9"/><rect x="478" y="566" width="177" height="9" rx="3" fill="#1B2440" opacity="0.9"/><rect x="671" y="564" width="38" height="15" rx="4" fill="#0E2A22" opacity="1.0"/><text x="690" y="575.5" fill="#00C896" font-size="9.5" font-weight="800" font-family="JetBrains Mono, Menlo, monospace" text-anchor="middle">OK</text><rect x="870" y="560" width="313" height="22" rx="4" fill="#10162B" opacity="0.9"/><rect x="878" y="566" width="243" height="9" rx="3" fill="#1B2440" opacity="0.9"/><rect x="1137" y="564" width="38" height="15" rx="4" fill="#0E2A22" opacity="1.0"/><text x="1156" y="575.5" fill="#00C896" font-size="9.5" font-weight="800" font-family="JetBrains Mono, Menlo, monospace" text-anchor="middle">OK</text><rect x="70" y="598" width="314" height="22" rx="4" fill="#10162B" opacity="0.9"/><rect x="78" y="604" width="244" height="9" rx="3" fill="#1B2440" opacity="0.9"/><rect x="338" y="602" width="38" height="15" rx="4" fill="#0E2A22" opacity="1.0"/><text x="357" y="613.5" fill="#00C896" font-size="9.5" font-weight="800" font-family="JetBrains Mono, Menlo, monospace" text-anchor="middle">OK</text><rect x="470" y="598" width="290" height="22" rx="4" fill="#10162B" opacity="0.9"/><rect x="478" y="604" width="220" height="9" rx="3" fill="#1B2440" opacity="0.9"/><rect x="714" y="602" width="38" height="15" rx="4" fill="#0E2A22" opacity="1.0"/><text x="733" y="613.5" fill="#00C896" font-size="9.5" font-weight="800" font-family="JetBrains Mono, Menlo, monospace" text-anchor="middle">OK</text><rect x="870" y="598" width="246" height="22" rx="4" fill="#10162B" opacity="0.9"/><rect x="878" y="604" width="176" height="9" rx="3" fill="#1B2440" opacity="0.9"/><rect x="1070" y="602" width="38" height="15" rx="4" fill="#0E2A22" opacity="1.0"/><text x="1089" y="613.5" fill="#00C896" font-size="9.5" font-weight="800" font-family="JetBrains Mono, Menlo, monospace" text-anchor="middle">OK</text><rect x="70" y="636" width="268" height="22" rx="4" fill="#10162B" opacity="0.9"/><rect x="78" y="642" width="198" height="9" rx="3" fill="#1B2440" opacity="0.9"/><rect x="292" y="640" width="38" height="15" rx="4" fill="#0E2A22" opacity="1.0"/><text x="311" y="651.5" fill="#00C896" font-size="9.5" font-weight="800" font-family="JetBrains Mono, Menlo, monospace" text-anchor="middle">OK</text><rect x="470" y="636" width="245" height="22" rx="4" fill="#10162B" opacity="0.9"/><rect x="478" y="642" width="175" height="9" rx="3" fill="#1B2440" opacity="0.9"/><rect x="669" y="640" width="38" height="15" rx="4" fill="#0E2A22" opacity="1.0"/><text x="688" y="651.5" fill="#00C896" font-size="9.5" font-weight="800" font-family="JetBrains Mono, Menlo, monospace" text-anchor="middle">OK</text><rect x="870" y="636" width="311" height="22" rx="4" fill="#10162B" opacity="0.9"/><rect x="878" y="642" width="241" height="9" rx="3" fill="#1B2440" opacity="0.9"/><rect x="1135" y="640" width="38" height="15" rx="4" fill="#0E2A22" opacity="1.0"/><text x="1154" y="651.5" fill="#00C896" font-size="9.5" font-weight="800" font-family="JetBrains Mono, Menlo, monospace" text-anchor="middle">OK</text><rect x="70" y="674" width="349" height="22" rx="4" fill="#10162B" opacity="0.9"/><rect x="78" y="680" width="279" height="9" rx="3" fill="#1B2440" opacity="0.9"/><rect x="373" y="678" width="38" height="15" rx="4" fill="#0E2A22" opacity="1.0"/><text x="392" y="689.5" fill="#00C896" font-size="9.5" font-weight="800" font-family="JetBrains Mono, Menlo, monospace" text-anchor="middle">OK</text><rect x="470" y="674" width="257" height="22" rx="4" fill="#10162B" opacity="0.9"/><rect x="478" y="680" width="187" height="9" rx="3" fill="#1B2440" opacity="0.9"/><rect x="681" y="678" width="38" height="15" rx="4" fill="#0E2A22" opacity="1.0"/><text x="700" y="689.5" fill="#00C896" font-size="9.5" font-weight="800" font-family="JetBrains Mono, Menlo, monospace" text-anchor="middle">OK</text><rect x="870" y="674" width="277" height="22" rx="4" fill="#10162B" opacity="0.9"/><rect x="878" y="680" width="207" height="9" rx="3" fill="#1B2440" opacity="0.9"/><rect x="1101" y="678" width="38" height="15" rx="4" fill="#0E2A22" opacity="1.0"/><text x="1120" y="689.5" fill="#00C896" font-size="9.5" font-weight="800" font-family="JetBrains Mono, Menlo, monospace" text-anchor="middle">OK</text><rect x="990" y="698" width="52.92" height="10.8" rx="2.16" fill="#241019" opacity="1.0" stroke="#FF3366" stroke-width="0.43200000000000005"/><text x="1016.46" y="704.885" fill="#FF3366" font-size="4.050000000000001" font-weight="700" font-family="JetBrains Mono, Menlo, monospace" text-anchor="middle">{"city":"Tok|yo"}</text><path d="M1019.6352,698.81 l -1.35,4.86 l 1.8900000000000001,2.16 l -1.08,3.24" stroke="#FF3366" stroke-width="0.43200000000000005" fill="none" opacity="0.8"/></svg>