<svg xmlns="http://www.w3.org/2000/svg" width="1100" height="620" viewBox="0 0 1100 620"><rect x="0" y="0" width="1100" height="620" rx="0" fill="#0A0E27" opacity="1.0"/><rect x="170" y="60" width="760" height="480" rx="16" fill="#0B1020" opacity="1.0" stroke="#2A3552" stroke-width="2.5"/><rect x="170" y="60" width="760" height="52" rx="16" fill="#10162B" opacity="1.0"/><text x="550" y="94" fill="#E4E9F7" font-size="24" font-weight="800" font-family="JetBrains Mono, Menlo, monospace" text-anchor="middle" letter-spacing="6">SUBMIT</text><text x="220" y="170" fill="#E4E9F7" font-size="24" font-weight="700" font-family="JetBrains Mono, Menlo, monospace" text-anchor="start">paper.pdf ✓</text><text x="220" y="206" fill="#8C97B8" font-size="16" font-weight="400" font-family="JetBrains Mono, Menlo, monospace" text-anchor="start">supplementary.zip ✓</text><rect x="220" y="240" width="660" height="30" rx="8" fill="#10162B" opacity="1.0" stroke="#2A3552" stroke-width="1.5"/><rect x="224" y="244" width="652" height="22" rx="6" fill="#0E2A22" opacity="1.0"/><rect x="224" y="244" width="652" height="22" rx="6" fill="none" opacity="1.0" stroke="#00C896" stroke-width="1.5"/><text x="550" y="261" fill="#0A0E27" font-size="15" font-weight="800" font-family="JetBrains Mono, Menlo, monospace" text-anchor="middle">100%</text><g transform="rotate(-4 488.95 364.2)"><rect x="330" y="320" width="317.9" height="88.39999999999999" rx="17.0" fill="#0E2A22" opacity="1.0" stroke="#00C896" stroke-width="5.1"/><text x="488.95" y="379.5" fill="#00C896" font-size="44.199999999999996" font-weight="800" font-family="JetBrains Mono, Menlo, monospace" text-anchor="middle">SUBMITTED</text></g><text x="550" y="470" fill="#8C97B8" font-size="14" font-weight="400" font-family="JetBrains Mono, Menlo, monospace" text-anchor="middle">> upload complete · receipt logged to research-wiki</text><rect x="700" y="488" width="226.8" height="59.400000000000006" rx="10.8" fill="#0B1020" opacity="1.0" stroke="#FF3366" stroke-width="1.5"/><text x="718.9" y="525.8" fill="#8C97B8" font-size="16.200000000000003" font-weight="700" font-family="JetBrains Mono, Menlo, monospace" text-anchor="start">DDL</text><text x="910.5999999999999" y="525.8" fill="#FF3366" font-size="22.950000000000003" font-weight="800" font-family="JetBrains Mono, Menlo, monospace" text-anchor="end">T-00:42</text></svg>