<svg xmlns="http://www.w3.org/2000/svg" width="1180" height="660" viewBox="0 0 1180 660"><rect x="0" y="0" width="1180" height="660" rx="0" fill="#0A0E27" opacity="1.0"/><rect x="36" y="110" width="300" height="210" rx="10" fill="#0B1020" opacity="1.0" stroke="#2A3552" stroke-width="1.5"/><text x="50" y="132" fill="#8C97B8" font-size="11" font-weight="400" font-family="JetBrains Mono, Menlo, monospace" text-anchor="start">wandb · exact_parse</text><line x1="52" y1="209.60000000000002" x2="320" y2="209.60000000000002" stroke="#2A3552" stroke-width="1" opacity="0.5"/><text x="50" y="213.60000000000002" fill="#8C97B8" font-size="9" font-weight="400" font-family="JetBrains Mono, Menlo, monospace" text-anchor="end">0.6</text><line x1="52" y1="178.8" x2="320" y2="178.8" stroke="#2A3552" stroke-width="1" opacity="0.5"/><text x="50" y="182.8" fill="#8C97B8" font-size="9" font-weight="400" font-family="JetBrains Mono, Menlo, monospace" text-anchor="end">0.8</text><path d="M52.0,192.7 L132.4,194.2 L199.4,195.7 L261.0,198.1 L320.0,200.4" stroke="#FF3366" stroke-width="3" fill="none" stroke-linejoin="round"/><circle cx="320.0" cy="200.4" r="4.5" fill="#FF3366"/><text x="324" y="132" fill="#FF3366" font-size="15" font-weight="800" font-family="JetBrains Mono, Menlo, monospace" text-anchor="end">0.71→0.66</text><circle cx="320.0" cy="200.4" r="7" fill="none" stroke="#FF3366" stroke-width="2.5"/><text x="300" y="96" fill="#8C97B8" font-size="12" font-weight="400" font-family="JetBrains Mono, Menlo, monospace" text-anchor="end">ghost: 0.71</text><rect x="208" y="268" width="96" height="38" rx="7" fill="#241019" opacity="1.0" stroke="#FF3366" stroke-width="2"/><text x="256" y="295" fill="#FF3366" font-size="25" font-weight="800" font-family="JetBrains Mono, Menlo, monospace" text-anchor="middle">0.66</text><circle cx="650.0" cy="310.0" r="240" fill="#FF3366" opacity="0.06"/><rect x="350.0" y="210.0" width="607.6" height="124.0" rx="24.8" fill="#241019" opacity="1.0" stroke="#FF3366" stroke-width="4.960000000000001"/><text x="653.8" y="289.05" fill="#FF3366" font-size="46.5" font-weight="700" font-family="JetBrains Mono, Menlo, monospace" text-anchor="middle">{"city":"Tok|yo"}</text><path d="M690.2560000000001,219.3 l -15.5,55.800000000000004 l 21.7,24.8 l -12.4,37.199999999999996" stroke="#FF3366" stroke-width="4.960000000000001" fill="none" opacity="0.8"/><path d="M686.0,200.0 l -18,52 l 26,18 l -14,46" stroke="#FF3366" stroke-width="5" fill="none" opacity="0.9"/><circle cx="650.0" cy="200.0" r="10" fill="#FFB000"/><line x1="650.0" y1="200.0" x2="170" y2="580" stroke="#FFB000" stroke-width="1.6" opacity="0.5" stroke-dasharray="6 5"/><rect x="120" y="564" width="52.92" height="10.8" rx="2.16" fill="#241019" opacity="1.0" stroke="#FF3366" stroke-width="0.43200000000000005"/><text x="146.46" y="570.885" fill="#FF3366" font-size="4.050000000000001" font-weight="700" font-family="JetBrains Mono, Menlo, monospace" text-anchor="middle">{"city":"Tok|yo"}</text><path d="M149.6352,564.81 l -1.35,4.86 l 1.8900000000000001,2.16 l -1.08,3.24" stroke="#FF3366" stroke-width="0.43200000000000005" fill="none" opacity="0.8"/><text x="146" y="556" fill="#8C97B8" font-size="10" font-weight="400" font-family="JetBrains Mono, Menlo, monospace" text-anchor="middle">S09 · corner</text><rect x="340.0" y="394.0" width="620" height="56" rx="9" fill="#0B1020" opacity="1.0" stroke="#2A3552" stroke-width="1.5"/><text x="362.0" y="429.0" fill="#E4E9F7" font-size="18" font-weight="700" font-family="JetBrains Mono, Menlo, monospace" text-anchor="start">json.loads(sample_1207)  →</text><rect x="758.0" y="402.0" width="196" height="42" rx="9" fill="#241019" opacity="1.0" stroke="#FF3366" stroke-width="2.4"/><text x="856.0" y="431.0" fill="#FF3366" font-size="22" font-weight="800" font-family="JetBrains Mono, Menlo, monospace" text-anchor="middle">ParseError</text><text x="350.0" y="480.0" fill="#8C97B8" font-size="14" font-weight="400" font-family="JetBrains Mono, Menlo, monospace" text-anchor="start">batch 2048/2048 · 37 malformed</text><rect x="960" y="40" width="176.4" height="46.2" rx="8.4" fill="#0B1020" opacity="1.0" stroke="#FFB000" stroke-width="1.5"/><text x="974.7" y="69.4" fill="#8C97B8" font-size="12.600000000000001" font-weight="700" font-family="JetBrains Mono, Menlo, monospace" text-anchor="start">DDL</text><text x="1123.8000000000002" y="69.4" fill="#FFB000" font-size="17.85" font-weight="800" font-family="JetBrains Mono, Menlo, monospace" text-anchor="end">T-16:21</text></svg>