<svg xmlns="http://www.w3.org/2000/svg" width="1280" height="280" viewBox="0 0 1280 280"><rect x="0" y="0" width="1280" height="280" rx="0" fill="#0A0E27" opacity="1.0"/><text x="640" y="40" fill="#E4E9F7" font-size="17" font-weight="700" font-family="JetBrains Mono, Menlo, monospace" text-anchor="middle">tokyo_fragment_chip_v1 — one source, four scales + repaired (S17-internal)</text><text x="120" y="92" fill="#8C97B8" font-size="12" font-weight="400" font-family="JetBrains Mono, Menlo, monospace" text-anchor="start">S10 hero (gated)</text><rect x="120" y="104" width="313.6" height="64.0" rx="12.8" fill="#241019" opacity="1.0" stroke="#FF3366" stroke-width="2.5600000000000005"/><text x="276.8" y="144.8" fill="#FF3366" font-size="24.0" font-weight="700" font-family="JetBrains Mono, Menlo, monospace" text-anchor="middle">{"city":"Tok|yo"}</text><path d="M295.61600000000004,108.8 l -8.0,28.8 l 11.200000000000001,12.8 l -6.4,19.2" stroke="#FF3366" stroke-width="2.5600000000000005" fill="none" opacity="0.8"/><text x="520" y="92" fill="#8C97B8" font-size="12" font-weight="400" font-family="JetBrains Mono, Menlo, monospace" text-anchor="start">S11 evidence thumb</text><rect x="520" y="116" width="196.0" height="40.0" rx="8.0" fill="#241019" opacity="1.0" stroke="#FF3366" stroke-width="1.6"/><text x="618.0" y="141.5" fill="#FF3366" font-size="15.0" font-weight="700" font-family="JetBrains Mono, Menlo, monospace" text-anchor="middle">{"city":"Tok|yo"}</text><path d="M629.76,119.0 l -5.0,18.0 l 7.0,8.0 l -4.0,12.0" stroke="#FF3366" stroke-width="1.6" fill="none" opacity="0.8"/><text x="770" y="92" fill="#8C97B8" font-size="12" font-weight="400" font-family="JetBrains Mono, Menlo, monospace" text-anchor="start">S12a shard</text><rect x="770" y="124" width="137.2" height="28.0" rx="5.6" fill="#241019" opacity="1.0" stroke="#FF3366" stroke-width="1.1199999999999999"/><text x="838.6" y="141.85" fill="#FF3366" font-size="10.5" font-weight="700" font-family="JetBrains Mono, Menlo, monospace" text-anchor="middle">{"city":"Tok|yo"}</text><path d="M846.832,126.1 l -3.5,12.6 l 4.8999999999999995,5.6000000000000005 l -2.8,8.4" stroke="#FF3366" stroke-width="1.1199999999999999" fill="none" opacity="0.8"/><text x="960" y="92" fill="#8C97B8" font-size="11" font-weight="400" font-family="JetBrains Mono, Menlo, monospace" text-anchor="start">S09 micro (BELOW transcription threshold, ungated)</text><rect x="960" y="130" width="82.32" height="16.8" rx="3.36" fill="#241019" opacity="1.0" stroke="#FF3366" stroke-width="0.672"/><text x="1001.16" y="140.71" fill="#FF3366" font-size="6.3" font-weight="700" font-family="JetBrains Mono, Menlo, monospace" text-anchor="middle">{"city":"Tok|yo"}</text><path d="M1006.0992,131.26 l -2.1,7.5600000000000005 l 2.94,3.3600000000000003 l -1.68,5.04" stroke="#FF3366" stroke-width="0.672" fill="none" opacity="0.8"/><text x="120" y="230" fill="#8C97B8" font-size="12" font-weight="400" font-family="JetBrains Mono, Menlo, monospace" text-anchor="start">repaired (authored inside paper_scope_limited_v1, S17):</text><rect x="560" y="212" width="196.0" height="40.0" rx="8.0" fill="#0E2A22" opacity="1.0" stroke="#00C896" stroke-width="1.6"/><text x="658.0" y="237.5" fill="#00C896" font-size="15.0" font-weight="700" font-family="JetBrains Mono, Menlo, monospace" text-anchor="middle">{"city":"Tokyo"} ✓</text></svg>