<svg xmlns="http://www.w3.org/2000/svg" width="1280" height="320" viewBox="0 0 1280 320"><rect x="0" y="0" width="1280" height="320" rx="0" fill="#0A0E27" opacity="1.0"/><text x="640" y="38" fill="#E4E9F7" font-size="17" font-weight="700" font-family="JetBrains Mono, Menlo, monospace" text-anchor="middle">wandb_curve_template_v1 — exact_parse curve, three canonical instances</text><rect x="60" y="64" width="360" height="220" rx="10" fill="#0B1020" opacity="1.0" stroke="#2A3552" stroke-width="1.5"/><text x="74" y="86" fill="#8C97B8" font-size="11" font-weight="400" font-family="JetBrains Mono, Menlo, monospace" text-anchor="start">wandb · exact_parse</text><line x1="76" y1="167.60000000000002" x2="404" y2="167.60000000000002" stroke="#2A3552" stroke-width="1" opacity="0.5"/><text x="74" y="171.60000000000002" fill="#8C97B8" font-size="9" font-weight="400" font-family="JetBrains Mono, Menlo, monospace" text-anchor="end">0.6</text><line x1="76" y1="134.79999999999998" x2="404" y2="134.79999999999998" stroke="#2A3552" stroke-width="1" opacity="0.5"/><text x="74" y="138.79999999999998" fill="#8C97B8" font-size="9" font-weight="400" font-family="JetBrains Mono, Menlo, monospace" text-anchor="end">0.8</text><path d="M76.0,167.6 L141.6,164.3 L223.6,157.8 L305.6,152.8 L404.0,149.6" stroke="#00C896" stroke-width="3" fill="none" stroke-linejoin="round"/><circle cx="404.0" cy="149.6" r="4.5" fill="#00C896"/><text x="408" y="86" fill="#00C896" font-size="15" font-weight="800" font-family="JetBrains Mono, Menlo, monospace" text-anchor="end">0.60→0.71</text><rect x="460" y="64" width="360" height="220" rx="10" fill="#0B1020" opacity="1.0" stroke="#2A3552" stroke-width="1.5"/><text x="474" y="86" fill="#8C97B8" font-size="11" font-weight="400" font-family="JetBrains Mono, Menlo, monospace" text-anchor="start">wandb · exact_parse</text><line x1="476" y1="167.60000000000002" x2="804" y2="167.60000000000002" stroke="#2A3552" stroke-width="1" opacity="0.5"/><text x="474" y="171.60000000000002" fill="#8C97B8" font-size="9" font-weight="400" font-family="JetBrains Mono, Menlo, monospace" text-anchor="end">0.6</text><line x1="476" y1="134.79999999999998" x2="804" y2="134.79999999999998" stroke="#2A3552" stroke-width="1" opacity="0.5"/><text x="474" y="138.79999999999998" fill="#8C97B8" font-size="9" font-weight="400" font-family="JetBrains Mono, Menlo, monospace" text-anchor="end">0.8</text><path d="M476.0,149.6 L574.4,151.2 L656.4,152.8 L722.0,155.3 L804.0,157.8" stroke="#FF3366" stroke-width="3" fill="none" stroke-linejoin="round"/><circle cx="804.0" cy="157.8" r="4.5" fill="#FF3366"/><text x="808" y="86" fill="#FF3366" font-size="15" font-weight="800" font-family="JetBrains Mono, Menlo, monospace" text-anchor="end">0.71→0.66</text><circle cx="804.0" cy="157.8" r="7" fill="none" stroke="#FF3366" stroke-width="2.5"/><rect x="860" y="64" width="360" height="220" rx="10" fill="#0B1020" opacity="1.0" stroke="#2A3552" stroke-width="1.5"/><text x="874" y="86" fill="#8C97B8" font-size="11" font-weight="400" font-family="JetBrains Mono, Menlo, monospace" text-anchor="start">wandb · exact_parse</text><line x1="876" y1="167.60000000000002" x2="1204" y2="167.60000000000002" stroke="#2A3552" stroke-width="1" opacity="0.5"/><text x="874" y="171.60000000000002" fill="#8C97B8" font-size="9" font-weight="400" font-family="JetBrains Mono, Menlo, monospace" text-anchor="end">0.6</text><line x1="876" y1="134.79999999999998" x2="1204" y2="134.79999999999998" stroke="#2A3552" stroke-width="1" opacity="0.5"/><text x="874" y="138.79999999999998" fill="#8C97B8" font-size="9" font-weight="400" font-family="JetBrains Mono, Menlo, monospace" text-anchor="end">0.8</text><path d="M876.0,138.1 L958.0,134.8 L1040.0,128.2 L1122.0,123.3 L1204.0,120.0" stroke="#00C896" stroke-width="3" fill="none" stroke-linejoin="round"/><circle cx="1204.0" cy="120.0" r="4.5" fill="#00C896"/><text x="1208" y="86" fill="#00C896" font-size="15" font-weight="800" font-family="JetBrains Mono, Menlo, monospace" text-anchor="end">0.78→0.89</text></svg>