<svg xmlns="http://www.w3.org/2000/svg" width="1000" height="560" viewBox="0 0 1000 560"><rect x="0" y="0" width="1000" height="560" rx="0" fill="#0A0E27" opacity="1.0"/><rect x="30" y="26" width="940" height="508" rx="12" fill="#0B1020" opacity="1.0" stroke="#2A3552" stroke-width="2"/><text x="70" y="62" fill="#8C97B8" font-size="15" font-weight="400" font-family="JetBrains Mono, Menlo, monospace" text-anchor="start">wandb · exact_parse</text><line x1="100" y1="429" x2="860" y2="429" stroke="#2A3552" stroke-width="1" opacity="0.5"/><text x="90" y="433.75" fill="#8C97B8" font-size="12" font-weight="400" font-family="JetBrains Mono, Menlo, monospace" text-anchor="end">0.50</text><line x1="100" y1="346" x2="860" y2="346" stroke="#2A3552" stroke-width="1" opacity="0.5"/><text x="90" y="351.25000000000006" fill="#8C97B8" font-size="12" font-weight="400" font-family="JetBrains Mono, Menlo, monospace" text-anchor="end">0.60</text><line x1="100" y1="264" x2="860" y2="264" stroke="#2A3552" stroke-width="1" opacity="0.5"/><text x="90" y="268.7500000000001" fill="#8C97B8" font-size="12" font-weight="400" font-family="JetBrains Mono, Menlo, monospace" text-anchor="end">0.70</text><line x1="100" y1="181" x2="860" y2="181" stroke="#2A3552" stroke-width="1" opacity="0.5"/><text x="90" y="186.25" fill="#8C97B8" font-size="12" font-weight="400" font-family="JetBrains Mono, Menlo, monospace" text-anchor="end">0.80</text><path d="M100,359 L290,346 L480,350 L670,342 L860,346" stroke="#5A6B85" stroke-width="3" fill="none" stroke-linejoin="round"/><path d="M100,346 L252,326 L442,297 L632,272 L860,256" stroke="#00C896" stroke-width="4.5" fill="none" stroke-linejoin="round"/><text x="846" y="376.25000000000006" fill="#8C97B8" font-size="15" font-weight="700" font-family="JetBrains Mono, Menlo, monospace" text-anchor="end">random-mask</text><rect x="868" y="332.25000000000006" width="96" height="36" rx="7" fill="#10162B" opacity="1.0" stroke="#5A6B85" stroke-width="1.5"/><text x="916" y="356.25000000000006" fill="#AEB9D6" font-size="24" font-weight="800" font-family="JetBrains Mono, Menlo, monospace" text-anchor="middle">0.60</text><text x="846" y="239.50000000000006" fill="#00C896" font-size="15" font-weight="700" font-family="JetBrains Mono, Menlo, monospace" text-anchor="end">schema-first</text><rect x="868" y="233.50000000000006" width="96" height="38" rx="7" fill="#0E2A22" opacity="1.0" stroke="#00C896" stroke-width="2"/><text x="916" y="260.50000000000006" fill="#00C896" font-size="25" font-weight="800" font-family="JetBrains Mono, Menlo, monospace" text-anchor="middle">0.71</text><rect x="373.59999999999997" y="299.50000000000006" width="150" height="40" rx="8" fill="#1A1330" opacity="1.0" stroke="#FFB000" stroke-width="1.6"/><text x="448.59999999999997" y="326.50000000000006" fill="#FFB000" font-size="18" font-weight="800" font-family="JetBrains Mono, Menlo, monospace" text-anchor="middle">0.60 → 0.71</text><rect x="780" y="44" width="168.0" height="44.0" rx="8.0" fill="#0B1020" opacity="1.0" stroke="#FFB000" stroke-width="1.5"/><text x="794.0" y="72.0" fill="#8C97B8" font-size="12.0" font-weight="700" font-family="JetBrains Mono, Menlo, monospace" text-anchor="start">DDL</text><text x="936.0" y="72.0" fill="#FFB000" font-size="17.0" font-weight="800" font-family="JetBrains Mono, Menlo, monospace" text-anchor="end">T-17:46</text></svg>