<svg xmlns="http://www.w3.org/2000/svg" width="1280" height="720" viewBox="0 0 1280 720"><rect x="0" y="0" width="1280" height="720" rx="0" fill="#0A0E27" opacity="1.0"/><line x1="128" y1="518" x2="256" y2="418" stroke="#E4E9F7" stroke-width="1.4" opacity="0.42"/><line x1="256" y1="418" x2="422" y2="331" stroke="#E4E9F7" stroke-width="1.4" opacity="0.42"/><line x1="422" y1="331" x2="576" y2="432" stroke="#E4E9F7" stroke-width="1.4" opacity="0.42"/><line x1="576" y1="432" x2="730" y2="302" stroke="#E4E9F7" stroke-width="1.4" opacity="0.42"/><line x1="730" y1="302" x2="858" y2="396" stroke="#E4E9F7" stroke-width="1.4" opacity="0.42"/><line x1="858" y1="396" x2="998" y2="274" stroke="#E4E9F7" stroke-width="1.4" opacity="0.42"/><line x1="998" y1="274" x2="1126" y2="144" stroke="#E4E9F7" stroke-width="1.4" opacity="0.42"/><line x1="128" y1="518" x2="77" y2="360" stroke="#FF3366" stroke-width="1.4" opacity="0.18"/><line x1="128" y1="518" x2="179" y2="274" stroke="#FF3366" stroke-width="1.4" opacity="0.18"/><line x1="730" y1="302" x2="640" y2="187" stroke="#FF3366" stroke-width="1.4" opacity="0.18"/><line x1="640" y1="187" x2="512" y2="130" stroke="#FF3366" stroke-width="1.4" opacity="0.18"/><circle cx="128" cy="518" r="14.0" fill="#E4E9F7" opacity="0.13"/><circle cx="128" cy="518" r="5.5" fill="#E4E9F7" opacity="0.95"/><circle cx="256" cy="418" r="11.2" fill="#E4E9F7" opacity="0.13"/><circle cx="256" cy="418" r="4.4" fill="#E4E9F7" opacity="0.95"/><circle cx="422" cy="331" r="14.0" fill="#E4E9F7" opacity="0.13"/><circle cx="422" cy="331" r="5.5" fill="#E4E9F7" opacity="0.95"/><circle cx="576" cy="432" r="15.4" fill="#FF3366" opacity="0.13"/><circle cx="576" cy="432" r="6.1" fill="#FF3366" opacity="0.95"/><circle cx="730" cy="302" r="16.8" fill="#FFB000" opacity="0.13"/><circle cx="730" cy="302" r="6.6" fill="#FFB000" opacity="0.95"/><circle cx="858" cy="396" r="15.4" fill="#FFB000" opacity="0.13"/><circle cx="858" cy="396" r="6.1" fill="#FFB000" opacity="0.95"/><circle cx="998" cy="274" r="15.4" fill="#00C896" opacity="0.13"/><circle cx="998" cy="274" r="6.1" fill="#00C896" opacity="0.95"/><circle cx="1126" cy="144" r="22.4" fill="#FFFFFF" opacity="0.13"/><circle cx="1126" cy="144" r="8.8" fill="#FFFFFF" opacity="0.95"/><circle cx="77" cy="360" r="4.9" fill="#FF3366" opacity="0.13"/><circle cx="77" cy="360" r="1.9" fill="#FF3366" opacity="0.95"/><circle cx="179" cy="274" r="4.4" fill="#FF3366" opacity="0.13"/><circle cx="179" cy="274" r="1.7" fill="#FF3366" opacity="0.95"/><circle cx="640" cy="187" r="5.9" fill="#FF3366" opacity="0.13"/><circle cx="640" cy="187" r="2.3" fill="#FF3366" opacity="0.95"/><circle cx="512" cy="130" r="4.9" fill="#FF3366" opacity="0.13"/><circle cx="512" cy="130" r="1.9" fill="#FF3366" opacity="0.95"/><text x="640.0" y="52" fill="#E4E9F7" font-size="30" font-weight="800" font-family="JetBrains Mono, Menlo, monospace" text-anchor="middle" letter-spacing="6">RESEARCH WIKI</text><text x="640.0" y="76" fill="#8C97B8" font-size="12" font-weight="400" font-family="JetBrains Mono, Menlo, monospace" text-anchor="middle">the night, written into memory</text><text x="576.0" y="462.0" fill="#FF3366" font-size="20" font-weight="800" font-family="JetBrains Mono, Menlo, monospace" text-anchor="middle">REJECT</text><text x="857.6" y="426.00000000000006" fill="#FFB000" font-size="20" font-weight="800" font-family="JetBrains Mono, Menlo, monospace" text-anchor="middle">WARN_corrected</text><text x="998.4000000000001" y="255.60000000000002" fill="#00C896" font-size="20" font-weight="800" font-family="JetBrains Mono, Menlo, monospace" text-anchor="middle">ACCEPT</text><text x="128.0" y="542.4" fill="#8C97B8" font-size="11" font-weight="400" font-family="JetBrains Mono, Menlo, monospace" text-anchor="middle">idea</text><text x="256.0" y="441.59999999999997" fill="#8C97B8" font-size="11" font-weight="400" font-family="JetBrains Mono, Menlo, monospace" text-anchor="middle">novelty</text><text x="422.40000000000003" y="355.2" fill="#8C97B8" font-size="11" font-weight="400" font-family="JetBrains Mono, Menlo, monospace" text-anchor="middle">experiment</text><text x="1126.4" y="168.0" fill="#8C97B8" font-size="11" font-weight="400" font-family="JetBrains Mono, Menlo, monospace" text-anchor="middle">paper</text><text x="640.0" y="211.20000000000002" fill="#8C97B8" font-size="11" font-weight="400" font-family="JetBrains Mono, Menlo, monospace" text-anchor="middle">sanitizer</text></svg>